<svg width="1440" height="824" viewBox="0 0 1440 824" fill="none" xmlns="http://www.w3.org/2000/svg">
<path d="M1441 0H0L-1.25452 804.67L44.9999 791.373L83.9999 800.656L104.574 809.186L120.78 804.67L143.315 805.423L163.825 807.932L195.222 807.179L205.857 810.943L219.277 803.416L229.152 805.423H273.21L285.617 800.656H293.72L312.457 804.419L369.429 802.663L383.102 791.373L404.878 786.355L440.327 785.602L491.981 803.918L514.01 806.427H522.619L541.103 812.699L590.732 823.989L653.274 821.229L675.556 812.699H685.937L719.867 803.667L731.514 808.936L740.124 808.183L758.608 811.194H774.56L872.044 804.921L883.439 799.401L892.554 797.645L918.381 787.358L975.099 783.595L992.824 791.373L1130.32 762.771L1156.4 776.319H1174.88L1210.83 782.341L1224.25 775.065L1258.44 778.577L1267.3 786.606L1272.36 788.362L1325.28 787.358L1341.74 790.369L1356.5 797.645L1377.95 803.667L1405 804.921L1423.5 797.645L1441 803.667V0Z" fill="black"/>
</svg>
