<svg width="1442" height="466" viewBox="0 0 1442 466" fill="none" xmlns="http://www.w3.org/2000/svg">
<path d="M43.7097 29.9844L1 21.7388L1.25272 406.032H29.8101L42.4461 412.528H67.9709L85.1558 417.276L96.5283 432.517L150.358 441.763L171.333 432.517L182.706 441.763L193.067 439.514L210.252 453.756H258.522L300.726 465L337.118 462.751L355.566 465L389.178 449.258L498.101 457.004L516.044 453.756H534.492L550.161 447.01L626.988 432.517H653.018L684.861 423.772L735.658 439.514L780.642 417.276H835.735L941.119 432.517L956.283 439.514L986.862 450.008L1002.53 465L1102.35 443.262L1172.86 452.757H1209.51L1231.24 450.008L1248.68 443.262H1320.71L1378.83 460.752L1385.4 464.5L1397.78 460.752L1416.23 464.5L1441 455.755V49.224H1415.22L1401.07 43.4771L1362.91 40.9785L1296.44 16.4917L1277.24 28.4852L1264.1 16.4917L1251.97 22.9882L1233.01 8.2461L1189.04 10.7447L1142.79 1H1102.86H1087.19L1062.93 16.4917L1022.24 13.4933L950.723 10.7447L934.043 16.4917H911.804L895.882 22.9882L814.254 40.9785H796.311L769.017 49.224L712.155 35.4814L666.412 56.72H596.662L506.946 44.7264L498.101 40.9785H487.992L458.929 32.2332L444.777 15.9919H432.141L358.094 37.7302L342.678 35.4814L271.663 32.2332H239.821L217.834 35.4814L201.154 47.9747L170.828 44.7264H130.645L67.2127 29.9844L59.8838 25.4868H53.5658L43.7097 29.9844Z" fill="black" stroke="black"/>
</svg>
