<svg width="2691" height="1080" viewBox="0 0 2691 1080" fill="none" xmlns="http://www.w3.org/2000/svg">
<path d="M2691 0H0V1054.68L86.3028 1037.25L159.07 1049.42L197.459 1060.6L227.695 1054.68L269.742 1055.67L308.01 1058.95L366.592 1057.97L386.435 1062.9L411.474 1053.03L429.899 1055.67H512.104L535.254 1049.42H550.372L585.332 1054.35L691.632 1052.05L717.143 1037.25L757.773 1030.67L823.915 1029.69L920.293 1053.69L961.395 1056.98H977.458L1011.95 1065.2L1104.54 1080L1221.24 1076.38L1262.81 1065.2H1282.18L1345.49 1053.36L1367.22 1060.27L1383.28 1059.28L1417.77 1063.23H1447.54L1629.43 1055.01L1650.69 1047.77L1667.69 1045.47L1715.88 1031.99L1821.71 1027.06L1854.78 1037.25L2111.32 999.761L2159.98 1017.52H2194.46L2261.55 1025.41L2286.59 1015.87L2350.37 1020.48L2366.91 1031L2376.35 1033.3L2475.09 1031.99L2505.8 1035.93L2533.34 1045.47L2573.36 1053.36L2623.83 1055.01L2658.35 1045.47L2691 1053.36V0Z" fill="black"/>
</svg>
