<svg viewBox="0 0 25 25">
<path fill-rule="evenodd" clip-rule="evenodd" d="M11.8116 10.243C10.9845 10.6283 10.281 11.2927 9.577 12.2642C9.4766 12.4027 9.47254 12.4869 9.57569 12.5614C9.6482 12.6137 9.69033 12.597 9.79596 12.4843C9.81008 12.4691 9.81008 12.4691 9.82454 12.4534C9.91584 12.3546 9.98939 12.2707 10.1465 12.0882C10.6656 11.4854 10.9192 11.2373 11.3132 11.0103C11.6542 10.814 11.9539 11.1025 11.8968 11.4719C11.8808 11.5755 11.8533 11.6521 11.7822 11.8163C11.7539 11.8817 11.742 11.9101 11.7288 11.945C11.6007 12.2817 11.4928 12.5625 11.2668 13.1491L11.256 13.1771C11.1876 13.3545 11.1876 13.3545 11.1193 13.5318C10.8233 14.3012 10.6436 14.773 10.4583 15.272L10.4474 15.3012C10.4143 15.3902 10.3813 15.4792 10.3484 15.5683C10.136 16.1442 10.0145 16.5185 9.92216 16.9165C9.90773 16.9784 9.90773 16.9784 9.89311 17.0414C9.84107 17.2665 9.81321 17.4116 9.79764 17.5607C9.77071 17.8186 9.79236 18.0297 9.8734 18.2072C9.9651 18.408 10.1621 18.5517 10.3869 18.5843C10.7614 18.6387 11.1227 18.6348 11.4322 18.5644C11.6064 18.5248 11.7787 18.4729 11.9478 18.4094C12.4373 18.2253 12.909 17.9381 13.3658 17.5585C13.7654 17.2254 14.1436 16.8196 14.5401 16.3153C14.5747 16.2716 14.5747 16.2716 14.6091 16.228C14.7289 16.0753 14.7875 15.9761 14.8094 15.8714C14.8333 15.7576 14.7371 15.6424 14.6603 15.6809C14.6223 15.7 14.5826 15.7394 14.522 15.8158C14.4787 15.8714 14.4552 15.9011 14.4316 15.9277C14.3376 16.0342 14.2383 16.1432 14.1307 16.2583C13.9534 16.448 13.7732 16.6336 13.5119 16.8979C13.3788 17.0325 13.2114 17.1502 13.0314 17.2386C12.7433 17.3802 12.4834 17.2018 12.5147 16.8825C12.5352 16.6717 12.5863 16.4537 12.6627 16.243C12.8295 15.7825 12.9658 15.4102 13.2676 14.5898C13.3984 14.2339 13.4549 14.0802 13.5255 13.8878C13.7347 13.3176 13.9017 12.8585 14.0606 12.4156C14.2569 11.8685 14.3678 11.4606 14.4191 11.0395C14.4579 10.7218 14.3695 10.418 14.168 10.2091C13.9445 9.97759 13.6266 9.87093 13.2307 9.87561C12.7927 9.88082 12.2818 10.0239 11.8116 10.243ZM14.8098 6.46658C14.0227 6.16033 13.0781 6.68646 12.92 7.5198C12.8053 8.12379 13.0309 8.64526 13.4914 8.86367C14.4043 9.29662 15.5 8.60289 15.5 7.59174C15.5 7.02925 15.2598 6.64169 14.8098 6.46658Z"/>
</svg>
