<svg viewBox="0 0 61 60">
<path d="M6.75 46.25V32.5C6.75 31.5675 6.97125 30.6629 7.41375 29.7862C7.85583 28.9096 8.46792 28.1892 9.25 27.625V21.25C9.25 19.5033 9.855 18.025 11.065 16.815C12.275 15.605 13.7533 15 15.5 15H26.125C27.0354 15 27.851 15.1771 28.5719 15.5312C29.2931 15.8854 29.9358 16.375 30.5 17C31.0642 16.375 31.7069 15.8854 32.4281 15.5312C33.149 15.1771 33.9646 15 34.875 15H45.5C47.2467 15 48.725 15.605 49.935 16.815C51.145 18.025 51.75 19.5033 51.75 21.25V27.625C52.5321 28.1892 53.1442 28.9096 53.5863 29.7862C54.0288 30.6629 54.25 31.5675 54.25 32.5V46.25H50.5V41.25H10.5V46.25H6.75ZM32.375 26.25H48V21.25C48 20.5417 47.7604 19.9479 47.2812 19.4688C46.8021 18.9896 46.2083 18.75 45.5 18.75H34.875C34.1667 18.75 33.5729 18.9896 33.0938 19.4688C32.6146 19.9479 32.375 20.5417 32.375 21.25V26.25ZM13 26.25H28.625V21.25C28.625 20.5417 28.3854 19.9479 27.9062 19.4688C27.4271 18.9896 26.8333 18.75 26.125 18.75H15.5C14.7917 18.75 14.1979 18.9896 13.7188 19.4688C13.2396 19.9479 13 20.5417 13 21.25V26.25ZM10.5 37.5H50.5V32.5C50.5 31.7917 50.2604 31.1979 49.7812 30.7188C49.3021 30.2396 48.7083 30 48 30H13C12.2917 30 11.6979 30.2396 11.2188 30.7188C10.7396 31.1979 10.5 31.7917 10.5 32.5V37.5Z" />
</svg>
