<svg viewBox="0 0 160 68">
<path d="M14.75 50.25V36.5C14.75 35.5675 14.9713 34.6629 15.4138 33.7862C15.8558 32.9096 16.4679 32.1892 17.25 31.625V25.25C17.25 23.5033 17.855 22.025 19.065 20.815C20.275 19.605 21.7533 19 23.5 19H34.125C35.0354 19 35.851 19.1771 36.5719 19.5312C37.2931 19.8854 37.9358 20.375 38.5 21C39.0642 20.375 39.7069 19.8854 40.4281 19.5312C41.149 19.1771 41.9646 19 42.875 19H53.5C55.2467 19 56.725 19.605 57.935 20.815C59.145 22.025 59.75 23.5033 59.75 25.25V31.625C60.5321 32.1892 61.1442 32.9096 61.5863 33.7862C62.0288 34.6629 62.25 35.5675 62.25 36.5V50.25H58.5V45.25H18.5V50.25H14.75ZM40.375 30.25H56V25.25C56 24.5417 55.7604 23.9479 55.2812 23.4688C54.8021 22.9896 54.2083 22.75 53.5 22.75H42.875C42.1667 22.75 41.5729 22.9896 41.0938 23.4688C40.6146 23.9479 40.375 24.5417 40.375 25.25V30.25ZM21 30.25H36.625V25.25C36.625 24.5417 36.3854 23.9479 35.9062 23.4688C35.4271 22.9896 34.8333 22.75 34.125 22.75H23.5C22.7917 22.75 22.1979 22.9896 21.7188 23.4688C21.2396 23.9479 21 24.5417 21 25.25V30.25ZM18.5 41.5H58.5V36.5C58.5 35.7917 58.2604 35.1979 57.7812 34.7188C57.3021 34.2396 56.7083 34 56 34H21C20.2917 34 19.6979 34.2396 19.2188 34.7188C18.7396 35.1979 18.5 35.7917 18.5 36.5V41.5Z" />
<path d="M74.9014 33.524H79.1254V29.18H80.8534V33.524H85.0774V35.252H80.8534V39.572H79.1254V35.252H74.9014V33.524Z" />
<path d="M104.047 54.4325C103.516 54.4325 103.071 54.2529 102.712 53.8938C102.353 53.5342 102.173 53.0888 102.173 52.5575V50.0575H101.5C99.7533 50.0575 98.275 49.4525 97.065 48.2425C95.855 47.0329 95.25 45.5546 95.25 43.8075V31.3075C95.25 29.4646 95.879 27.9623 97.1369 26.8006C98.3952 25.6386 99.8496 25.0575 101.5 25.0575V20.5388C101.5 18.7917 102.105 17.3133 103.315 16.1038C104.525 14.8938 106.003 14.2888 107.75 14.2888H135.25C136.997 14.2888 138.475 14.8938 139.685 16.1038C140.895 17.3133 141.5 18.7917 141.5 20.5388V25.0575C143.215 25.0575 144.685 25.6506 145.911 26.8369C147.137 28.0227 147.75 29.5129 147.75 31.3075V43.8075C147.75 45.5546 147.145 47.0329 145.935 48.2425C144.725 49.4525 143.247 50.0575 141.5 50.0575H140.827V52.5575C140.827 53.0888 140.655 53.5342 140.312 53.8938C139.97 54.2529 139.532 54.4325 139.001 54.4325C138.469 54.4325 138.024 54.2529 137.664 53.8938C137.305 53.5342 137.125 53.0888 137.125 52.5575V50.0575H105.923V52.5575C105.923 53.0896 105.743 53.5352 105.384 53.8944C105.024 54.2531 104.579 54.4325 104.047 54.4325ZM101.5 46.3075H141.5C142.208 46.3075 142.802 46.0679 143.281 45.5888C143.76 45.1096 144 44.5158 144 43.8075V31.3075C144 30.5992 143.76 30.0054 143.281 29.5263C142.802 29.0471 142.208 28.8075 141.5 28.8075C140.792 28.8075 140.198 29.0471 139.719 29.5263C139.24 30.0054 139 30.5992 139 31.3075V40.6825H104V31.3075C104 30.5992 103.76 30.0054 103.281 29.5263C102.802 29.0471 102.208 28.8075 101.5 28.8075C100.792 28.8075 100.198 29.0471 99.7188 29.5263C99.2396 30.0054 99 30.5992 99 31.3075V43.8075C99 44.5158 99.2396 45.1096 99.7188 45.5888C100.198 46.0679 100.792 46.3075 101.5 46.3075ZM107.75 36.9325H135.25V31.3075C135.25 30.295 135.479 29.3704 135.938 28.5338C136.396 27.6971 137 26.9967 137.75 26.4325V20.5388C137.75 19.8304 137.51 19.2367 137.031 18.7575C136.552 18.2783 135.958 18.0388 135.25 18.0388H107.75C107.042 18.0388 106.448 18.2783 105.969 18.7575C105.49 19.2367 105.25 19.8304 105.25 20.5388V26.4325C106 26.9967 106.604 27.6971 107.062 28.5338C107.521 29.3704 107.75 30.295 107.75 31.3075V36.9325Z" />
</svg>
