<svg viewBox="0 0 50 50" >
<path d="M30.0921 24.1588C29.4536 24.1588 28.9128 23.9383 28.4698 23.4974C28.0263 23.0567 27.8046 22.5173 27.8046 21.8791C27.8046 21.2406 28.025 20.6996 28.4656 20.2562C28.9062 19.8128 29.4458 19.5911 30.0843 19.5911C30.7225 19.5911 31.2633 19.8116 31.7067 20.2526C32.1501 20.6932 32.3718 21.2326 32.3718 21.8708C32.3718 22.5093 32.1514 23.0503 31.7104 23.4937C31.2698 23.9371 30.7303 24.1588 30.0921 24.1588ZM19.9156 24.1588C19.2774 24.1588 18.7366 23.9383 18.2932 23.4974C17.8498 23.0567 17.6281 22.5173 17.6281 21.8791C17.6281 21.2406 17.8486 20.6996 18.2895 20.2562C18.7302 19.8128 19.2696 19.5911 19.9078 19.5911C20.5463 19.5911 21.0871 19.8116 21.5302 20.2526C21.9736 20.6932 22.1953 21.2326 22.1953 21.8708C22.1953 22.5093 21.975 23.0503 21.5343 23.4937C21.0937 23.9371 20.5541 24.1588 19.9156 24.1588ZM25 34.6151C23.117 34.6151 21.4036 34.1191 19.8599 33.127C18.3161 32.1347 17.1316 30.8145 16.3062 29.1666H33.6937C32.8684 30.8145 31.6838 32.1347 30.1401 33.127C28.5963 34.1191 26.8829 34.6151 25 34.6151ZM25.001 42.7083C22.543 42.7083 20.2404 42.2435 18.0932 41.314C15.9456 40.3845 14.0732 39.1211 12.476 37.5239C10.8788 35.9267 9.61541 34.0548 8.6859 31.9083C7.75638 29.7614 7.29163 27.459 7.29163 25.001C7.29163 22.543 7.75638 20.2404 8.6859 18.0932C9.61541 15.9456 10.8788 14.0732 12.476 12.476C14.0732 10.8788 15.9451 9.61541 18.0916 8.6859C20.2385 7.75638 22.5409 7.29163 24.9989 7.29163C27.4569 7.29163 29.7595 7.75638 31.9067 8.6859C34.0543 9.61541 35.9267 10.8788 37.5239 12.476C39.1211 14.0732 40.3845 15.9451 41.314 18.0916C42.2435 20.2385 42.7083 22.5409 42.7083 24.9989C42.7083 27.4569 42.2435 29.7595 41.314 31.9067C40.3845 34.0543 39.1211 35.9267 37.5239 37.5239C35.9267 39.1211 34.0548 40.3845 31.9083 41.314C29.7614 42.2435 27.459 42.7083 25.001 42.7083ZM25 39.5833C29.0277 39.5833 32.4652 38.1597 35.3125 35.3125C38.1597 32.4652 39.5833 29.0277 39.5833 25C39.5833 20.9722 38.1597 17.5347 35.3125 14.6875C32.4652 11.8402 29.0277 10.4166 25 10.4166C24.7069 10.4166 24.414 10.4232 24.1213 10.4364C23.8283 10.45 23.5442 10.4915 23.2692 10.5609C23.1144 10.796 23.0156 11.0217 22.9729 11.238C22.9302 11.4543 22.9088 11.7013 22.9088 11.9791C22.9088 12.7885 23.1939 13.4783 23.764 14.0484C24.3342 14.6185 25.026 14.9036 25.8395 14.9036C26.1878 14.9036 26.4823 14.8515 26.7229 14.7474C26.9632 14.6432 27.2222 14.5911 27.5 14.5911C27.825 14.5911 28.0958 14.7158 28.3125 14.9651C28.5295 15.214 28.638 15.5045 28.638 15.8364C28.638 16.4725 28.318 16.8901 27.6781 17.089C27.0385 17.2883 26.4236 17.388 25.8333 17.388C24.351 17.388 23.079 16.8571 22.0171 15.7953C20.9553 14.7335 20.4244 13.4614 20.4244 11.9791V11.6104C20.4244 11.4951 20.4486 11.3416 20.4968 11.15C17.5482 12.1114 15.131 13.8415 13.2453 16.3401C11.3595 18.8387 10.4166 21.7253 10.4166 25C10.4166 29.0277 11.8402 32.4652 14.6875 35.3125C17.5347 38.1597 20.9722 39.5833 25 39.5833Z"/>
</svg>
