<svg viewBox="0 0 50 50">
<path d="M44.7917 13.1411V36.8589C44.7917 37.9113 44.4271 38.8021 43.698 39.5312C42.9688 40.2604 42.078 40.625 41.0256 40.625H8.97452C7.92209 40.625 7.03129 40.2604 6.30212 39.5312C5.57296 38.8021 5.20837 37.9113 5.20837 36.8589V13.1411C5.20837 12.0887 5.57296 11.1979 6.30212 10.4688C7.03129 9.73958 7.92209 9.375 8.97452 9.375H41.0256C42.078 9.375 42.9688 9.73958 43.698 10.4688C44.4271 11.1979 44.7917 12.0887 44.7917 13.1411ZM8.33337 17.5083H41.6667V13.1411C41.6667 12.9807 41.5999 12.8339 41.4662 12.7005C41.3329 12.5668 41.186 12.5 41.0256 12.5H8.97452C8.8141 12.5 8.66723 12.5668 8.5339 12.7005C8.40021 12.8339 8.33337 12.9807 8.33337 13.1411V17.5083ZM8.33337 24.1583V36.8589C8.33337 37.0193 8.40021 37.1661 8.5339 37.2995C8.66723 37.4332 8.8141 37.5 8.97452 37.5H41.0256C41.186 37.5 41.3329 37.4332 41.4662 37.2995C41.5999 37.1661 41.6667 37.0193 41.6667 36.8589V24.1583H8.33337Z"/>
</svg>
