<svg viewBox="0 0 50 50" >
<path d="M33.2933 34.1348C34.8023 34.1348 36.0877 34.6656 37.1495 35.727C38.211 36.7888 38.7417 38.0742 38.7417 39.5833C38.7417 41.0923 38.211 42.3777 37.1495 43.4395C36.0877 44.501 34.8023 45.0317 33.2933 45.0317C32.094 45.0317 31.015 44.6732 30.0563 43.9562C29.0972 43.2392 28.4589 42.3024 28.1412 41.1458H13.9901L11.9469 44.3348C11.7146 44.7008 11.3821 44.9279 10.9495 45.0161C10.5169 45.1039 10.1176 45.0317 9.75159 44.7994C9.38562 44.5671 9.15853 44.2347 9.07034 43.802C8.98249 43.3694 9.05471 42.9701 9.287 42.6041L17.9568 29.2786C15.5769 28.3064 13.6219 26.7947 12.0917 24.7437C10.5611 22.6923 9.69569 20.3472 9.49534 17.7083H36.338C36.1377 20.3472 35.2757 22.6923 33.7521 24.7437C32.2282 26.7947 30.2762 28.3064 27.8964 29.2786L30.2365 32.977C29.6809 33.2572 29.2288 33.5275 28.8802 33.788C28.5316 34.0484 28.1464 34.4111 27.7245 34.876L24.7198 30.1041C24.4684 30.1736 24.1832 30.2083 23.8641 30.2083H21.9891C21.6832 30.2083 21.4047 30.1736 21.1537 30.1041L16.0177 38.0208H28.1412C28.4589 36.8642 29.0972 35.9274 30.0563 35.2104C31.015 34.4933 32.094 34.1348 33.2933 34.1348ZM33.2933 41.9072C33.9502 41.9072 34.5018 41.6841 34.9479 41.238C35.3941 40.7918 35.6172 40.2402 35.6172 39.5833C35.6172 38.9263 35.3941 38.3748 34.9479 37.9286C34.5018 37.4824 33.9502 37.2593 33.2933 37.2593C32.6363 37.2593 32.0848 37.4824 31.6386 37.9286C31.1924 38.3748 30.9693 38.9263 30.9693 39.5833C30.9693 40.2402 31.1924 40.7918 31.6386 41.238C32.0848 41.6841 32.6363 41.9072 33.2933 41.9072ZM22.9167 27.1031C25.0268 27.1031 26.9379 26.5236 28.65 25.3645C30.3618 24.2055 31.6452 22.6951 32.5 20.8333H13.3334C14.2094 22.6951 15.4981 24.2055 17.1995 25.3645C18.9009 26.5236 20.8066 27.1031 22.9167 27.1031ZM17.7604 14.8239C17.9209 13.8437 17.8948 13.0064 17.6823 12.3119C17.4702 11.6175 17.0195 10.8454 16.3302 9.99578C15.6358 9.093 15.179 8.24369 14.9599 7.44786C14.7408 6.65203 14.7181 5.71852 14.8917 4.64734H16.4542C16.2941 5.62755 16.3202 6.45949 16.5323 7.14317C16.7448 7.8272 17.1955 8.59387 17.8844 9.44317C18.6004 10.346 19.0625 11.1953 19.2709 11.9911C19.4792 12.7869 19.4966 13.7312 19.3229 14.8239H17.7604ZM22.949 14.8239C23.1091 13.8437 23.0882 13.0064 22.8865 12.3119C22.6851 11.6175 22.2398 10.8454 21.5505 9.99578C20.8346 9.11453 20.3672 8.27599 20.1485 7.48015C19.9294 6.68397 19.9066 5.7397 20.0802 4.64734H21.6427C21.4823 5.62755 21.5084 6.45949 21.7209 7.14317C21.933 7.8272 22.3837 8.59387 23.0729 9.44317C23.7674 10.3244 24.2242 11.1631 24.4433 11.9593C24.662 12.7552 24.6846 13.71 24.511 14.8239H22.949ZM28.1771 14.8239C28.3375 13.8437 28.3169 13.0064 28.1151 12.3119C27.9134 11.6175 27.4679 10.8454 26.7787 9.99578C26.063 9.11453 25.5957 8.27599 25.3766 7.48015C25.1575 6.68397 25.1348 5.7397 25.3084 4.64734H26.8709C26.7108 5.62755 26.7368 6.45949 26.949 7.14317C27.1615 7.8272 27.6122 8.59387 28.3011 9.44317C28.9955 10.3244 29.4523 11.1631 29.6714 11.9593C29.8905 12.7552 29.9132 13.71 29.7396 14.8239H28.1771Z"/>
</svg>
