<svg viewBox="0 0 60 60" >
<path d="M19.8804 7.5C12.3716 7.5 6.25 13.6957 6.25 21.25C6.25 27.0842 9.90769 32.0942 15.0293 34.0796C15.3354 43.2104 19.8272 53.7086 19.9365 53.9624C20.3112 55.2906 21.5225 56.25 22.937 56.25C23.1378 56.2501 23.3373 56.2179 23.5278 56.1548L31.1401 53.6304L30.9277 53.6865C32.826 53.2948 33.9581 51.1557 33.1641 49.3677L33.1616 49.3579C32.3059 47.4198 30.9473 44.1367 29.939 40.8057C29.1096 38.0658 28.593 35.256 28.623 33.3667C30.191 32.9079 31.755 32.4225 33.252 31.9507V31.9482C34.9125 31.4246 36.5128 30.9221 37.8418 30.5591C39.078 30.2214 40.0811 30.0449 40.4834 30.0195C40.6153 30.0294 40.7479 30.0253 40.8789 30.0073C44.1374 30.0519 46.0258 30.9088 47.0166 31.5479H47.019C47.721 31.9993 48.543 32.2461 49.3799 32.2461C51.7767 32.2461 53.75 30.2607 53.75 27.8662V14.6338C53.75 12.239 51.7757 10.2539 49.3799 10.2539C48.543 10.2539 47.721 10.5007 47.019 10.9521H47.0166C46.0251 11.5917 44.1347 12.4493 40.8716 12.4927C40.7802 12.4794 40.688 12.4729 40.5957 12.4731C40.559 12.4745 40.5224 12.477 40.4858 12.4805C40.0846 12.4556 39.0775 12.2791 37.8394 11.9409C36.5102 11.5779 34.9118 11.0754 33.252 10.5518V10.5493C28.8461 9.16068 23.8667 7.5 19.8804 7.5ZM19.8804 11.25C22.7116 11.25 27.7174 12.7371 32.124 14.126C33.7842 14.6498 35.4134 15.1659 36.853 15.5591C37.5383 15.7463 38.158 15.9057 38.75 16.0278V26.4722C38.158 26.5943 37.5383 26.7537 36.853 26.9409C35.4136 27.3341 33.7847 27.8503 32.124 28.374C27.7174 29.7629 22.7116 31.25 19.8804 31.25C19.0415 31.25 18.2315 31.1338 17.4536 30.9351C13.1741 29.8419 10 25.9385 10 21.25C10 15.7093 14.4266 11.25 19.8804 11.25ZM49.3799 14.0039C49.7366 14.0039 50 14.2661 50 14.6338V27.8662C50 28.2317 49.7355 28.4961 49.3799 28.4961C49.2667 28.4961 49.1584 28.4646 49.0479 28.3936V28.396C47.712 27.5343 45.5616 26.6178 42.5 26.3403V16.1597C45.5616 15.8822 47.712 14.9656 49.0479 14.104V14.1064C49.1584 14.0354 49.2667 14.0039 49.3799 14.0039ZM20 17.5C19.0054 17.5 18.0516 17.8951 17.3483 18.5983C16.6451 19.3016 16.25 20.2554 16.25 21.25C16.25 22.2446 16.6451 23.1984 17.3483 23.9017C18.0516 24.6049 19.0054 25 20 25C20.9946 25 21.9484 24.6049 22.6517 23.9017C23.3549 23.1984 23.75 22.2446 23.75 21.25C23.75 20.2554 23.3549 19.3016 22.6517 18.5983C21.9484 17.8951 20.9946 17.5 20 17.5ZM24.8486 34.3677C24.9397 36.7708 25.5818 39.3539 26.3501 41.8921C27.3526 45.2036 28.5927 48.1705 29.4873 50.2271L23.3154 52.2729C23.1163 51.7829 19.3979 42.5566 18.8403 34.9463C19.1845 34.9728 19.5296 35 19.8804 35C21.418 35 23.1054 34.7509 24.8486 34.3677Z"/>
</svg>
