<svg viewBox="0 0 60 60" >
<path d="M32.7412 50.735C32.5579 50.8925 32.3629 51.0138 32.1562 51.0988C31.9496 51.1833 31.7235 51.2256 31.4781 51.2256C31.2331 51.2256 30.984 51.1769 30.7306 51.0794C30.4777 50.9815 30.2581 50.8396 30.0719 50.6538C28.556 48.9967 27.404 47.2619 26.6156 45.4494C25.8269 43.6369 25.4325 41.7192 25.4325 39.6963C25.4325 38.2288 25.6456 36.685 26.0719 35.065C26.4985 33.4446 27.2502 31.3444 28.3269 28.7644C29.2373 26.4694 29.88 24.6804 30.255 23.3975C30.63 22.1146 30.8175 20.9263 30.8175 19.8325C30.8175 18.4025 30.505 17.0529 29.88 15.7838C29.255 14.5146 28.2758 13.2469 26.9425 11.9806C26.7592 11.7915 26.614 11.5708 26.5069 11.3188C26.3998 11.0667 26.3463 10.8146 26.3463 10.5625C26.3463 10.3254 26.3887 10.1035 26.4737 9.89688C26.5587 9.69021 26.6798 9.49376 26.8369 9.30751C27.0256 9.12167 27.2396 8.97834 27.4788 8.87751C27.7175 8.77667 27.9642 8.72626 28.2188 8.72626C28.4738 8.72626 28.7077 8.77563 28.9206 8.87438C29.134 8.97313 29.3319 9.1048 29.5144 9.26938C31.1394 10.8015 32.3877 12.449 33.2594 14.2119C34.1315 15.9744 34.5675 17.8454 34.5675 19.825C34.5675 21.2108 34.3612 22.6658 33.9487 24.19C33.5362 25.7146 32.8194 27.7042 31.7981 30.1588C30.7885 32.5783 30.1002 34.4629 29.7331 35.8125C29.366 37.1617 29.1825 38.4404 29.1825 39.6488C29.1825 41.1354 29.4806 42.5688 30.0769 43.9488C30.6731 45.3292 31.5962 46.6988 32.8462 48.0575C33.0033 48.2463 33.1292 48.4506 33.2238 48.6706C33.3183 48.8906 33.3656 49.1263 33.3656 49.3775C33.3656 49.6292 33.315 49.8711 33.2137 50.1031C33.1129 50.3356 32.9554 50.5463 32.7412 50.735ZM44.4244 50.7306C44.2406 50.891 44.0458 51.0177 43.84 51.1106C43.6338 51.2036 43.4038 51.25 43.15 51.25C42.8963 51.25 42.6465 51.1965 42.4006 51.0894C42.1544 50.9823 41.9392 50.8371 41.755 50.6538C40.2388 49.0129 39.0825 47.2886 38.2863 45.4806C37.4896 43.6731 37.0913 41.7638 37.0913 39.7525C37.0913 38.2938 37.3083 36.7363 37.7425 35.08C38.1771 33.4242 38.9327 31.319 40.0094 28.7644C40.9356 26.4536 41.5823 24.6704 41.9494 23.415C42.3165 22.1592 42.5 20.9873 42.5 19.8994C42.5 18.4519 42.1875 17.0788 41.5625 15.78C40.9375 14.4817 39.9583 13.2152 38.625 11.9806C38.4392 11.7902 38.2998 11.5763 38.2069 11.3388C38.114 11.1008 38.0675 10.855 38.0675 10.6013C38.0675 10.3592 38.1035 10.14 38.1756 9.94376C38.2477 9.74751 38.3627 9.55459 38.5206 9.36501C38.7098 9.17584 38.9308 9.02605 39.1838 8.91563C39.4363 8.80522 39.6871 8.75001 39.9362 8.75001C40.1854 8.75001 40.411 8.7973 40.6131 8.89188C40.8156 8.98605 41.0102 9.11188 41.1969 9.26938C42.8219 10.8015 44.0704 12.449 44.9425 14.2119C45.8142 15.9744 46.25 17.8454 46.25 19.825C46.25 21.2108 46.0433 22.6619 45.63 24.1781C45.2163 25.694 44.4919 27.7083 43.4569 30.2213C42.4473 32.6571 41.759 34.5417 41.3919 35.875C41.0248 37.2083 40.8413 38.4654 40.8413 39.6463C40.8413 41.1225 41.1538 42.5625 41.7788 43.9663C42.4038 45.37 43.3413 46.7546 44.5913 48.12C44.7433 48.3058 44.8575 48.5073 44.9338 48.7244C45.01 48.941 45.0481 49.1579 45.0481 49.375C45.0481 49.6229 44.9975 49.8708 44.8963 50.1188C44.7954 50.3663 44.6381 50.5702 44.4244 50.7306ZM21.0588 50.7306C20.8754 50.891 20.6806 51.0177 20.4744 51.1106C20.2681 51.2036 20.0381 51.25 19.7844 51.25C19.5306 51.25 19.2808 51.1965 19.035 51.0894C18.7892 50.9823 18.574 50.8371 18.3894 50.6538C16.8735 49.0129 15.7212 47.2886 14.9325 45.4806C14.1442 43.6731 13.75 41.7638 13.75 39.7525C13.75 38.2938 13.9631 36.7363 14.3894 35.08C14.8156 33.4242 15.5673 31.319 16.6444 28.7644C17.5706 26.4536 18.2173 24.6704 18.5844 23.415C18.9515 22.1592 19.135 20.9873 19.135 19.8994C19.135 18.4519 18.8225 17.0788 18.1975 15.78C17.5725 14.4817 16.5933 13.2152 15.26 11.9806C15.0458 11.7902 14.8929 11.576 14.8013 11.3381C14.7096 11.0998 14.6637 10.8567 14.6637 10.6088C14.6637 10.3613 14.7063 10.129 14.7913 9.91188C14.8758 9.69522 14.9969 9.49376 15.1544 9.30751C15.3431 9.12167 15.5577 8.97834 15.7981 8.87751C16.0385 8.77667 16.2813 8.72626 16.5263 8.72626C16.7717 8.72626 17.0037 8.77563 17.2225 8.87438C17.4412 8.97313 17.6444 9.1048 17.8319 9.26938C19.4569 10.8015 20.7052 12.4435 21.5769 14.1956C22.4485 15.9481 22.8844 17.8286 22.8844 19.8369C22.8844 21.199 22.6881 22.6379 22.2956 24.1538C21.9031 25.67 21.1896 27.675 20.155 30.1688C19.1608 32.5817 18.4762 34.4629 18.1012 35.8125C17.7262 37.1617 17.5387 38.4404 17.5387 39.6488C17.5387 41.1392 17.8408 42.5877 18.445 43.9944C19.0492 45.4011 19.9762 46.7763 21.2262 48.12C21.3783 48.3058 21.4925 48.5073 21.5688 48.7244C21.6446 48.941 21.6825 49.1579 21.6825 49.375C21.6825 49.6229 21.6321 49.8708 21.5312 50.1188C21.4304 50.3663 21.2729 50.5702 21.0588 50.7306Z" />
</svg>
