<svg viewBox="0 0 50 50">
<path d="M14.824 47.3958L21.0896 15.4208C21.258 14.574 21.6601 13.9288 22.2958 13.4854C22.9312 13.042 23.595 12.8203 24.287 12.8203C24.9918 12.8203 25.6462 12.974 26.25 13.2812C26.8535 13.5885 27.3368 14.0493 27.7 14.6635L29.7833 17.9969C30.4351 19.0437 31.3392 20.0153 32.4958 20.9115C33.6524 21.8076 35.0134 22.4868 36.5786 22.949V19.0703H39.0625V47.3958H36.5786V26.15C34.8318 25.7681 33.1764 25.1036 31.6125 24.1568C30.0486 23.2099 28.6524 22.0019 27.4239 20.5328L25.9135 28.1052L30.3286 32.3115V47.3958H27.2036V34.9958L21.9068 30.5089L18.137 47.3958H14.824ZM15.2682 26.7229L11.3823 25.9896C10.9604 25.8986 10.6266 25.679 10.3807 25.3307C10.1349 24.9821 10.0575 24.5861 10.1484 24.1427L11.7109 15.9656C11.9057 15.0014 12.4292 14.2314 13.2812 13.6557C14.1333 13.0804 15.0415 12.8901 16.0057 13.0849L17.8807 13.4734L15.2682 26.7229ZM27.7245 11.138C26.672 11.138 25.7679 10.7601 25.012 10.0042C24.2561 9.24826 23.8781 8.3441 23.8781 7.29167C23.8781 6.23924 24.2561 5.33507 25.012 4.57916C25.7679 3.82326 26.672 3.44531 27.7245 3.44531C28.7766 3.44531 29.6805 3.82326 30.4365 4.57916C31.1924 5.33507 31.5703 6.23924 31.5703 7.29167C31.5703 8.3441 31.1924 9.24826 30.4365 10.0042C29.6805 10.7601 28.7766 11.138 27.7245 11.138Z" />
</svg>
