<svg viewBox="0 0 50 50" >
<path d="M4.68747 47.3958V44.2708H6.24997C7.36108 44.2708 8.43417 44.0972 9.46924 43.75C10.5043 43.4028 11.5146 42.9019 12.5 42.2474C13.4854 42.9019 14.4956 43.4028 15.5307 43.75C16.5658 44.0972 17.6389 44.2708 18.75 44.2708C19.8611 44.2708 20.9428 44.0972 21.9953 43.75C23.0477 43.4028 24.0493 42.9019 25 42.2474C25.9854 42.9019 26.9956 43.4028 28.0307 43.75C29.0658 44.0972 30.1389 44.2708 31.25 44.2708C32.3611 44.2708 33.4428 44.0972 34.4953 43.75C35.5477 43.4028 36.5493 42.9019 37.5 42.2474C38.4507 42.9019 39.4522 43.4028 40.5047 43.75C41.5571 44.0972 42.6389 44.2708 43.75 44.2708H45.3125V47.3958H43.75C42.7135 47.3958 41.6744 47.2623 40.6328 46.9953C39.5911 46.728 38.5468 46.3207 37.5 45.7734C36.4531 46.3207 35.4088 46.728 34.3672 46.9953C33.3255 47.2623 32.2864 47.3958 31.25 47.3958C30.2135 47.3958 29.1744 47.2623 28.1328 46.9953C27.0911 46.728 26.0468 46.3207 25 45.7734C23.9531 46.3207 22.9088 46.728 21.8672 46.9953C20.8255 47.2623 19.7864 47.3958 18.75 47.3958C17.7135 47.3958 16.6744 47.2623 15.6328 46.9953C14.5911 46.728 13.5468 46.3207 12.5 45.7734C11.4531 46.3207 10.4088 46.728 9.36716 46.9953C8.32549 47.2623 7.28643 47.3958 6.24997 47.3958H4.68747ZM18.75 39.7036C17.5802 39.7036 16.4503 39.4552 15.3604 38.9583C14.2708 38.4615 13.3173 37.7616 12.5 36.8589C12.0566 37.3238 11.5824 37.7444 11.0776 38.1208C10.5731 38.4976 10.0001 38.8047 9.35882 39.0422C7.98868 38.7137 6.60448 38.3191 5.20622 37.8583C3.80795 37.3979 2.54667 36.9312 1.42236 36.4583C3.21715 35.7399 5.35865 35.0141 7.84684 34.2807C10.3347 33.5477 12.8005 32.9863 15.2442 32.5964L18.2573 23.3974C18.5857 22.4172 19.1994 21.7528 20.0984 21.4042C20.997 21.0556 21.855 21.091 22.6724 21.5104L28.225 24.3391L34.2708 21.0135L37.8484 13.0047L36.8067 10.2443L39.2869 4.6875L45.3724 7.39583L42.8927 12.9526L40.1323 13.9943L32.0432 32.2115C35.1522 32.5667 38.1998 33.163 41.1859 34.0005C44.172 34.8377 46.6359 35.6569 48.5776 36.4583C47.4238 36.9229 46.1243 37.391 44.6791 37.8625C43.2343 38.334 41.8816 38.7273 40.6208 39.0422C39.993 38.8259 39.4234 38.5295 38.9119 38.1531C38.4005 37.7764 37.9298 37.345 37.5 36.8589C36.6694 37.7616 35.7125 38.4615 34.6291 38.9583C33.5461 39.4552 32.4198 39.7036 31.25 39.7036C30.0802 39.7036 28.9538 39.4519 27.8708 38.9484C26.7875 38.445 25.8305 37.7418 25 36.8391C24.1694 37.7418 23.2125 38.445 22.1291 38.9484C21.0461 39.4519 19.9198 39.7036 18.75 39.7036ZM29.4229 31.9474L32.2437 25.6167L28.225 27.8646L24.2786 25.8292L22.2593 31.8708C22.6656 31.8441 23.1036 31.8208 23.5734 31.801C24.0435 31.7809 24.5191 31.7708 25 31.7708C25.7024 31.7708 26.4316 31.7828 27.1875 31.8068C27.9434 31.8311 28.6885 31.878 29.4229 31.9474ZM25 19.4714C23.9475 19.4714 23.0434 19.0934 22.2875 18.3375C21.5316 17.5816 21.1536 16.6774 21.1536 15.625C21.1536 14.5726 21.5316 13.6684 22.2875 12.9125C23.0434 12.1566 23.9475 11.7786 25 11.7786C26.0524 11.7786 26.9566 12.1566 27.7125 12.9125C28.4684 13.6684 28.8463 14.5726 28.8463 15.625C28.8463 16.6774 28.4684 17.5816 27.7125 18.3375C26.9566 19.0934 26.0524 19.4714 25 19.4714Z" />
</svg>
