<svg viewBox="0 0 60 60">
<path d="M4.125 48.75L12.0325 33.2256C12.4146 32.476 12.954 31.8792 13.6506 31.435C14.3473 30.9912 15.1287 30.7694 15.995 30.7694C16.8992 30.7694 17.7285 31.0048 18.4831 31.4756C19.2381 31.946 19.7854 32.6144 20.125 33.4806L21.62 37.0769C21.8154 37.5352 22.1958 37.7454 22.7612 37.7075C23.3263 37.6696 23.6896 37.4225 23.8512 36.9662L29.1537 19.6538C29.705 17.83 30.7435 16.3742 32.2694 15.2863C33.7948 14.1979 35.5063 13.6538 37.4038 13.6538C39.2629 13.6538 40.9425 14.1875 42.4425 15.255C43.9425 16.3221 44.9808 17.734 45.5575 19.4906L55.9375 48.75H51.9712L41.9856 20.6681C41.6365 19.6298 41.0475 18.8262 40.2188 18.2575C39.3904 17.6883 38.449 17.4038 37.3944 17.4038C36.3398 17.4038 35.3919 17.6987 34.5506 18.2887C33.709 18.8783 33.1135 19.6923 32.7644 20.7306L27.4613 38.0431C27.1183 39.0656 26.5175 39.8998 25.6588 40.5456C24.7996 41.1915 23.8221 41.5144 22.7262 41.5144C21.74 41.5144 20.8267 41.2523 19.9862 40.7281C19.1462 40.2044 18.534 39.4729 18.1494 38.5338L16.6056 34.7931C16.4777 34.5206 16.2575 34.3804 15.945 34.3725C15.6321 34.3646 15.4035 34.4969 15.2594 34.7694L8.26937 48.75H4.125ZM15.5994 24.9038C13.7094 24.9038 12.0954 24.231 10.7575 22.8856C9.41917 21.5406 8.75 19.9396 8.75 18.0825C8.75 16.1879 9.41917 14.5754 10.7575 13.245C12.0954 11.915 13.7094 11.25 15.5994 11.25C17.4898 11.25 19.0965 11.9144 20.4194 13.2431C21.7423 14.5723 22.4037 16.186 22.4037 18.0844C22.4037 19.9448 21.7423 21.5465 20.4194 22.8894C19.0965 24.2323 17.4898 24.9038 15.5994 24.9038ZM15.5975 21.1538C16.4633 21.1538 17.1892 20.8542 17.775 20.255C18.3608 19.6554 18.6537 18.9254 18.6537 18.065C18.6537 17.2046 18.3608 16.4785 17.775 15.8869C17.1892 15.2956 16.4633 15 15.5975 15C14.7312 15 13.9983 15.2948 13.3988 15.8844C12.7996 16.4744 12.5 17.2052 12.5 18.0769C12.5 18.9294 12.7996 19.6554 13.3988 20.255C13.9983 20.8542 14.7312 21.1538 15.5975 21.1538Z" />
</svg>
