<svg viewBox="0 0 50 50">
<path d="M13.1411 44.7917C12.1023 44.7917 11.2148 44.4238 10.4786 43.6881C9.74288 42.952 9.375 42.0644 9.375 41.0256V8.97452C9.375 7.93563 9.74288 7.04813 10.4786 6.31202C11.2148 5.57626 12.1023 5.20837 13.1411 5.20837H36.8589C37.8977 5.20837 38.7852 5.57626 39.5214 6.31202C40.2571 7.04813 40.625 7.93563 40.625 8.97452V41.0256C40.625 42.0644 40.2571 42.952 39.5214 43.6881C38.7852 44.4238 37.8977 44.7917 36.8589 44.7917H13.1411ZM13.1411 41.6667H36.8589C37.0193 41.6667 37.1661 41.5999 37.2995 41.4662C37.4332 41.3329 37.5 41.186 37.5 41.0256V8.97452C37.5 8.8141 37.4332 8.66723 37.2995 8.53389C37.1661 8.40021 37.0193 8.33337 36.8589 8.33337H13.1411C12.9807 8.33337 12.8339 8.40021 12.7005 8.53389C12.5668 8.66723 12.5 8.8141 12.5 8.97452V41.0256C12.5 41.186 12.5668 41.3329 12.7005 41.4662C12.8339 41.5999 12.9807 41.6667 13.1411 41.6667ZM25 38.7818C27.6549 38.7818 29.9212 37.8431 31.799 35.9657C33.6764 34.0879 34.6151 31.8216 34.6151 29.1667C34.6151 26.5118 33.6764 24.2455 31.799 22.3678C29.9212 20.4903 27.6549 19.5516 25 19.5516C22.3451 19.5516 20.0788 20.4903 18.201 22.3678C16.3236 24.2455 15.3849 26.5118 15.3849 29.1667C15.3849 31.8216 16.3236 34.0879 18.201 35.9657C20.0788 37.8431 22.3451 38.7818 25 38.7818ZM25 36.0417C24.0972 36.0417 23.2238 35.8735 22.3797 35.537C21.5356 35.2006 20.7905 34.7091 20.1443 34.0625L29.8958 24.311C30.5424 24.9572 31.0339 25.7023 31.3703 26.5464C31.7068 27.3905 31.875 28.2639 31.875 29.1667C31.875 31.0764 31.2066 32.6997 29.8698 34.0365C28.533 35.3733 26.9097 36.0417 25 36.0417ZM16.6667 14.5834C17.2569 14.5834 17.7517 14.3837 18.151 13.9844C18.5503 13.5851 18.75 13.0903 18.75 12.5C18.75 11.9098 18.5503 11.415 18.151 11.0157C17.7517 10.6164 17.2569 10.4167 16.6667 10.4167C16.0764 10.4167 15.5816 10.6164 15.1823 11.0157C14.783 11.415 14.5833 11.9098 14.5833 12.5C14.5833 13.0903 14.783 13.5851 15.1823 13.9844C15.5816 14.3837 16.0764 14.5834 16.6667 14.5834ZM22.9167 14.5834C23.5069 14.5834 24.0017 14.3837 24.401 13.9844C24.8003 13.5851 25 13.0903 25 12.5C25 11.9098 24.8003 11.415 24.401 11.0157C24.0017 10.6164 23.5069 10.4167 22.9167 10.4167C22.3264 10.4167 21.8316 10.6164 21.4323 11.0157C21.033 11.415 20.8333 11.9098 20.8333 12.5C20.8333 13.0903 21.033 13.5851 21.4323 13.9844C21.8316 14.3837 22.3264 14.5834 22.9167 14.5834Z"/>
</svg>
