<svg viewBox="0 0 50 50">
<path d="M25.0037 24.7193C26.0401 24.7193 26.9262 24.3502 27.662 23.612C28.3981 22.8738 28.7662 21.9865 28.7662 20.95C28.7662 19.9136 28.3971 19.0273 27.6589 18.2912C26.9207 17.5554 26.0332 17.1875 24.9964 17.1875C23.9599 17.1875 23.0738 17.5566 22.338 18.2948C21.6019 19.033 21.2339 19.9205 21.2339 20.9573C21.2339 21.9938 21.603 22.8799 22.3412 23.6157C23.0794 24.3514 23.9669 24.7193 25.0037 24.7193ZM25 40.6532C29.0757 37.0046 32.1946 33.5049 34.3568 30.1542C36.5189 26.8035 37.6 23.8688 37.6 21.35C37.6 17.5521 36.3934 14.4299 33.9802 11.9834C31.567 9.53685 28.5736 8.31358 25 8.31358C21.4264 8.31358 18.433 9.53685 16.0198 11.9834C13.6066 14.4299 12.4 17.5521 12.4 21.35C12.4 23.8688 13.4811 26.8035 15.6433 30.1542C17.8054 33.5049 20.9243 37.0046 25 40.6532ZM25 44.8115C19.757 40.2684 15.8254 36.0405 13.2052 32.1276C10.5851 28.2145 9.27502 24.6219 9.27502 21.35C9.27502 16.5424 10.8301 12.6502 13.9401 9.67348C17.0505 6.69674 20.7372 5.20837 25 5.20837C29.2629 5.20837 32.9495 6.69674 36.0599 9.67348C39.17 12.6502 40.725 16.5424 40.725 21.35C40.725 24.6219 39.415 28.2145 36.7948 32.1276C34.1747 36.0405 30.2431 40.2684 25 44.8115Z" />
</svg>
