<svg viewBox="0 0 50 50">
<path d="M25 42.7281C22.8711 42.7281 20.9835 42.1552 19.3369 41.0094C17.6904 39.8635 16.3717 38.3732 15.3807 36.5385L10.7531 39.1708L9.19059 36.4583L14.1349 33.5937C14.004 33.1719 13.9003 32.7345 13.8239 32.2818C13.7479 31.829 13.6751 31.3783 13.6057 30.9297H7.67236V27.8047H13.5859C13.6286 27.2679 13.6948 26.7396 13.7843 26.2198C13.8736 25.7003 13.9904 25.1962 14.1349 24.7073L9.1708 21.8229L10.7333 19.1307L15.3286 21.8151C15.5928 21.3154 15.8939 20.8312 16.2317 20.3625C16.5699 19.8937 16.9232 19.4618 17.2916 19.0667C17.2357 18.8503 17.2043 18.634 17.1974 18.4177C17.1908 18.2014 17.1875 17.9851 17.1875 17.7687C17.1875 16.9087 17.3224 16.0899 17.5922 15.3125C17.8619 14.5354 18.2319 13.8236 18.7021 13.1771L15.725 10.2005L17.9005 7.9729L21.0656 11.0338C21.6559 10.6811 22.279 10.4134 22.9349 10.2307C23.5904 10.0477 24.2788 9.95623 25 9.95623C25.7211 9.95623 26.4182 10.0564 27.0911 10.2568C27.7644 10.4568 28.3961 10.7331 28.9864 11.0859L32.0994 7.9729L34.275 10.2005L31.2781 13.1974C31.7482 13.8436 32.1128 14.5519 32.3718 15.3224C32.6309 16.0932 32.7604 16.9087 32.7604 17.7687V18.3917C32.7604 18.5906 32.7323 18.7982 32.676 19.0146C33.0448 19.4097 33.3948 19.847 33.726 20.3265C34.0573 20.8061 34.355 21.2955 34.6192 21.7948L39.2265 19.1625L40.789 21.8552L35.813 24.6875C35.9574 25.1496 36.0797 25.6238 36.1797 26.1099C36.28 26.596 36.3581 27.0941 36.414 27.6042H42.3276V30.7292H36.414C36.3581 31.2392 36.2854 31.734 36.1958 32.2135C36.1062 32.693 35.996 33.1639 35.8651 33.626L40.8291 36.5104L39.2666 39.2026L34.6396 36.5182C33.6486 38.3533 32.3264 39.847 30.6729 40.9995C29.0198 42.1519 27.1288 42.7281 25 42.7281ZM20.4406 16.8151C21.0975 16.4252 21.8114 16.126 22.5823 15.9177C23.3527 15.7094 24.1586 15.6052 25 15.6052C25.8281 15.6052 26.6166 15.704 27.3656 15.9015C28.1149 16.0991 28.818 16.3863 29.475 16.763C29.2774 15.7106 28.7613 14.8338 27.9265 14.1328C27.0918 13.4314 26.1163 13.0807 25 13.0807C23.8701 13.0807 22.8772 13.4401 22.0213 14.1588C21.1651 14.8772 20.6382 15.7627 20.4406 16.8151ZM25 39.6031C27.5347 39.6031 29.5606 38.5408 31.0776 36.4161C32.5946 34.2915 33.3531 31.875 33.3531 29.1667C33.3531 26.7361 32.6467 24.389 31.2338 22.1255C29.821 19.862 27.743 18.7302 25 18.7302C22.2784 18.7302 20.2059 19.8533 18.7823 22.0995C17.3586 24.3456 16.6468 26.7014 16.6468 29.1667C16.6468 31.875 17.4053 34.2915 18.9224 36.4161C20.4394 38.5408 22.4652 39.6031 25 39.6031ZM23.4375 34.8958V23.9385H26.5625V34.8958H23.4375Z" />
</svg>
