<svg viewBox="0 0 50 50" >
<path d="M29.1666 37.5C32.6388 37.5 35.5902 36.2847 38.0208 33.8542C40.4513 31.4236 41.6666 28.4722 41.6666 25C41.6666 21.4931 40.3905 18.533 37.8385 16.1198C35.2864 13.7066 32.2221 12.5 28.6458 12.5C26.8055 12.5 25.0539 12.7177 23.3911 13.1531C21.7286 13.5885 20.128 14.2415 18.5895 15.112L24.2786 17.3557C25.5956 17.9061 26.6527 18.7575 27.4499 19.9099C28.2471 21.0623 28.6458 22.3424 28.6458 23.75C28.6458 25.6997 27.9753 27.3503 26.6343 28.7021C25.2937 30.0535 23.6725 30.7292 21.7708 30.7292H8.59784C8.48811 31.509 8.41659 32.3918 8.38325 33.3776C8.34992 34.363 8.33325 35.5234 8.33325 36.8589C8.33325 37.0193 8.40009 37.1661 8.53377 37.2995C8.66711 37.4332 8.81398 37.5 8.9744 37.5H29.1666ZM9.12648 27.6042H21.6666C22.751 27.6042 23.6645 27.233 24.4072 26.4906C25.1496 25.7479 25.5208 24.8344 25.5208 23.75C25.5208 22.9833 25.3084 22.2875 24.8838 21.6625C24.4591 21.0375 23.8702 20.5661 23.1171 20.2484L15.5687 17.2036C14.0037 18.555 12.6756 20.1168 11.5843 21.8891C10.4933 23.6613 9.67405 25.5663 9.12648 27.6042ZM29.1666 40.625H8.9744C7.92197 40.625 7.03117 40.2604 6.302 39.5312C5.57284 38.8021 5.20825 37.9113 5.20825 36.8589V33.7339C5.20825 30.2512 5.80391 27.0255 6.99523 24.0568C8.18655 21.088 9.82787 18.5179 11.9192 16.3464C14.0105 14.1748 16.4892 12.4701 19.3551 11.2323C22.2208 9.9941 25.3176 9.375 28.6458 9.375C30.86 9.375 32.9452 9.78229 34.9015 10.5969C36.8581 11.4115 38.5709 12.524 40.04 13.9344C41.5091 15.3444 42.6683 16.9964 43.5176 18.8901C44.3669 20.7839 44.7916 22.8205 44.7916 25C44.7916 27.1448 44.3843 29.1693 43.5697 31.0734C42.7551 32.9779 41.6393 34.6387 40.2223 36.0557C38.8053 37.4727 37.148 38.5885 35.2504 39.4031C33.3525 40.2177 31.3246 40.625 29.1666 40.625Z"/>
</svg>
