<svg viewBox="0 0 50 50" >
<path d="M13.5416 42.7084V7.29175H27.0833C30.2482 7.29175 32.9493 8.41015 35.1864 10.647C37.4232 12.8841 38.5416 15.5852 38.5416 18.7501C38.5416 21.915 37.4232 24.6161 35.1864 26.8532C32.9493 29.09 30.2482 30.2084 27.0833 30.2084H19.7916V42.7084H13.5416ZM19.7916 23.9584H27.3395C28.7718 23.9584 29.998 23.4485 31.0182 22.4287C32.038 21.4086 32.5479 20.1824 32.5479 18.7501C32.5479 17.3178 32.038 16.0916 31.0182 15.0714C29.998 14.0516 28.7718 13.5417 27.3395 13.5417H19.7916V23.9584Z"/>
</svg>
