<svg viewBox="0 0 50 50">
<path d="M9.37604 24.7396C8.06389 24.7396 6.95451 24.2866 6.04792 23.3807C5.14097 22.4745 4.6875 21.3653 4.6875 20.0531C4.6875 18.741 5.14045 17.6316 6.04635 16.725C6.9526 15.8181 8.06181 15.3646 9.37396 15.3646C10.6861 15.3646 11.7955 15.8175 12.7021 16.7234C13.609 17.6297 14.0625 18.7389 14.0625 20.051C14.0625 21.3632 13.6095 22.4726 12.7036 23.3792C11.7974 24.2861 10.6882 24.7396 9.37604 24.7396ZM18.751 16.4062C17.4389 16.4062 16.3295 15.9533 15.4229 15.0474C14.516 14.1411 14.0625 13.0319 14.0625 11.7198C14.0625 10.4076 14.5155 9.29826 15.4214 8.39167C16.3276 7.48472 17.4368 7.03125 18.749 7.03125C20.0611 7.03125 21.1705 7.4842 22.0771 8.39011C22.984 9.29636 23.4375 10.4056 23.4375 11.7177C23.4375 13.0299 22.9845 14.1392 22.0786 15.0458C21.1724 15.9528 20.0632 16.4062 18.751 16.4062ZM31.251 16.4062C29.9389 16.4062 28.8295 15.9533 27.9229 15.0474C27.016 14.1411 26.5625 13.0319 26.5625 11.7198C26.5625 10.4076 27.0155 9.29826 27.9214 8.39167C28.8276 7.48472 29.9368 7.03125 31.249 7.03125C32.5611 7.03125 33.6705 7.4842 34.5771 8.39011C35.484 9.29636 35.9375 10.4056 35.9375 11.7177C35.9375 13.0299 35.4845 14.1392 34.5786 15.0458C33.6724 15.9528 32.5632 16.4062 31.251 16.4062ZM40.626 24.7396C39.3139 24.7396 38.2045 24.2866 37.2979 23.3807C36.391 22.4745 35.9375 21.3653 35.9375 20.0531C35.9375 18.741 36.3905 17.6316 37.2964 16.725C38.2026 15.8181 39.3118 15.3646 40.624 15.3646C41.9361 15.3646 43.0455 15.8175 43.9521 16.7234C44.859 17.6297 45.3125 18.7389 45.3125 20.051C45.3125 21.3632 44.8595 22.4726 43.9536 23.3792C43.0474 24.2861 41.9382 24.7396 40.626 24.7396ZM13.8542 45.5729C12.4253 45.5729 11.2347 45.0255 10.2823 43.9307C9.33021 42.8363 8.85417 41.5434 8.85417 40.0521C8.85417 38.3 9.46042 36.7835 10.6729 35.5026C11.8858 34.2221 13.0797 32.942 14.2547 31.6625C15.2616 30.5729 16.1332 29.3977 16.8693 28.137C17.605 26.8762 18.4696 25.6903 19.463 24.5792C20.187 23.7434 21.0167 23.0403 21.9521 22.4698C22.8875 21.8997 23.9035 21.6146 25 21.6146C26.1115 21.6146 27.1411 21.8858 28.0891 22.4281C29.037 22.9701 29.8663 23.6658 30.5771 24.5151C31.5493 25.6262 32.4052 26.8175 33.1448 28.0891C33.8847 29.3602 34.7516 30.5514 35.7453 31.6625C36.9203 32.942 38.1142 34.2221 39.3271 35.5026C40.5396 36.7835 41.1458 38.3 41.1458 40.0521C41.1458 41.5434 40.6698 42.8363 39.7177 43.9307C38.7653 45.0255 37.5747 45.5729 36.1458 45.5729C34.2708 45.5729 32.4132 45.4167 30.5729 45.1042C28.7326 44.7917 26.875 44.6354 25 44.6354C23.125 44.6354 21.2674 44.7917 19.4271 45.1042C17.5868 45.4167 15.7292 45.5729 13.8542 45.5729Z"/>
</svg>
