<svg viewBox="0 0 40 40">
<path d="M12.1797 37.5C11.3377 37.5 10.6251 37.2083 10.0417 36.625C9.45841 36.0417 9.16675 35.329 9.16675 34.4871V5.51292C9.16675 4.67097 9.45841 3.95833 10.0417 3.375C10.6251 2.79167 11.3377 2.5 12.1797 2.5H27.8205C28.6624 2.5 29.3751 2.79167 29.9584 3.375C30.5417 3.95833 30.8334 4.67097 30.8334 5.51292V34.4871C30.8334 35.329 30.5417 36.0417 29.9584 36.625C29.3751 37.2083 28.6624 37.5 27.8205 37.5H12.1797ZM11.6667 29.6154V34.4871C11.6667 34.6154 11.7202 34.7329 11.8272 34.8396C11.9338 34.9465 12.0513 35 12.1797 35H27.8205C27.9488 35 28.0663 34.9465 28.173 34.8396C28.2799 34.7329 28.3334 34.6154 28.3334 34.4871V29.6154H11.6667ZM20.0001 33.7821C20.4081 33.7821 20.7559 33.6383 21.0434 33.3508C21.3306 33.0636 21.4742 32.7158 21.4742 32.3075C21.4742 31.8994 21.3306 31.5518 21.0434 31.2646C20.7559 30.9771 20.4081 30.8333 20.0001 30.8333C19.592 30.8333 19.2442 30.9771 18.9567 31.2646C18.6695 31.5518 18.5259 31.8994 18.5259 32.3075C18.5259 32.7158 18.6695 33.0636 18.9567 33.3508C19.2442 33.6383 19.592 33.7821 20.0001 33.7821ZM11.6667 27.1154H28.3334V9.58333H11.6667V27.1154ZM11.6667 7.08333H28.3334V5.51292C28.3334 5.38458 28.2799 5.26708 28.173 5.16042C28.0663 5.05347 27.9488 5 27.8205 5H12.1797C12.0513 5 11.9338 5.05347 11.8272 5.16042C11.7202 5.26708 11.6667 5.38458 11.6667 5.51292V7.08333Z"/>
</svg>
