<svg viewBox="0 0 50 50">
<path d="M4.6875 43.1891V40.024C5.88681 39.9573 6.81302 39.6068 7.46615 38.9724C8.11892 38.3381 9.3375 38.0209 11.1219 38.0209C12.9059 38.0209 14.1759 38.3681 14.9318 39.0625C15.6877 39.757 16.7307 40.1042 18.0609 40.1042C19.3911 40.1042 20.4342 39.757 21.1901 39.0625C21.946 38.3681 23.216 38.0209 25 38.0209C26.784 38.0209 28.0608 38.3681 28.8302 39.0625C29.5993 39.757 30.649 40.1042 31.9792 40.1042C33.3094 40.1042 34.3457 39.757 35.088 39.0625C35.8307 38.3681 37.0941 38.0209 38.8781 38.0209C40.6625 38.0209 41.8811 38.3381 42.5339 38.9724C43.187 39.6068 44.1132 39.9573 45.3125 40.024V43.1891C43.6646 43.1089 42.4993 42.7483 41.8167 42.1073C41.1344 41.4664 40.1549 41.1459 38.8781 41.1459C37.6014 41.1459 36.5918 41.4931 35.8495 42.1875C35.1068 42.882 33.8167 43.2292 31.9792 43.2292C30.1417 43.2292 28.8382 42.882 28.0687 42.1875C27.2997 41.4931 26.2767 41.1459 25 41.1459C23.7233 41.1459 22.7069 41.4931 21.951 42.1875C21.1951 42.882 19.8984 43.2292 18.0609 43.2292C16.2234 43.2292 14.9267 42.882 14.1708 42.1875C13.4149 41.4931 12.3986 41.1459 11.1219 41.1459C9.84514 41.1459 8.86562 41.4664 8.18333 42.1073C7.50069 42.7483 6.33542 43.1089 4.6875 43.1891ZM4.6875 33.8141V30.649C5.88681 30.5823 6.81302 30.2318 7.46615 29.5974C8.11892 28.9631 9.3375 28.6459 11.1219 28.6459C12.9059 28.6459 14.1812 28.9931 14.9479 29.6875C15.7146 30.382 16.7523 30.7292 18.0609 30.7292C19.3911 30.7292 20.4342 30.382 21.1901 29.6875C21.946 28.9931 23.216 28.6459 25 28.6459C26.784 28.6459 28.054 28.9931 28.8099 29.6875C29.5658 30.382 30.6089 30.7292 31.9391 30.7292C33.2693 30.7292 34.3123 30.382 35.0682 29.6875C35.8241 28.9931 37.0941 28.6459 38.8781 28.6459C40.6625 28.6459 41.8811 28.9631 42.5339 29.5974C43.187 30.2318 44.1132 30.5823 45.3125 30.649V33.8141C43.6646 33.7339 42.4993 33.3733 41.8167 32.7323C41.1344 32.0914 40.1549 31.7709 38.8781 31.7709C37.6014 31.7709 36.6078 32.1181 35.8974 32.8125C35.187 33.507 33.8809 33.8542 31.9792 33.8542C30.1201 33.8542 28.8115 33.507 28.0531 32.8125C27.2944 32.1181 26.2767 31.7709 25 31.7709C23.6806 31.7709 22.6696 32.1181 21.9672 32.8125C21.2648 33.507 19.9627 33.8542 18.0609 33.8542C16.1592 33.8542 14.8464 33.507 14.1224 32.8125C13.3988 32.1181 12.3986 31.7709 11.1219 31.7709C9.84514 31.7709 8.86562 32.0914 8.18333 32.7323C7.50069 33.3733 6.33542 33.7339 4.6875 33.8141ZM15.2964 23.5094L22.1234 16.6829L19.4792 14.0386C18.3469 12.9059 17.1717 12.0959 15.9536 11.6084C14.7356 11.1212 13.2158 10.8575 11.3943 10.8172V6.77087C13.7849 6.8108 15.7641 7.10733 17.3318 7.66046C18.8995 8.21324 20.446 9.25212 21.9714 10.7771L34.7036 23.5094C34.2734 23.8115 33.8474 24.0487 33.4255 24.2209C33.0033 24.3931 32.5146 24.4792 31.9594 24.4792C30.8694 24.4792 29.9165 24.132 29.1005 23.4375C28.2845 22.7431 26.9177 22.3959 25 22.3959C23.0823 22.3959 21.7155 22.7431 20.8995 23.4375C20.0835 24.132 19.1306 24.4792 18.0406 24.4792C17.4854 24.4792 16.9967 24.3931 16.5745 24.2209C16.1526 24.0487 15.7266 23.8115 15.2964 23.5094ZM34.5109 6.97139C35.8491 6.97139 36.9851 7.44344 37.9187 8.38754C38.8521 9.33164 39.3187 10.462 39.3187 11.7787C39.3187 13.1169 38.8521 14.2528 37.9187 15.1865C36.9851 16.1198 35.8491 16.5865 34.5109 16.5865C33.1731 16.5865 32.0373 16.1198 31.1036 15.1865C30.1703 14.2528 29.7036 13.1169 29.7036 11.7787C29.7036 10.462 30.1703 9.33164 31.1036 8.38754C32.0373 7.44344 33.1731 6.97139 34.5109 6.97139Z"/>
</svg>
