<svg viewBox="0 0 50 50" >
<path d="M8.97452 44.7917C7.92209 44.7917 7.03129 44.4271 6.30212 43.698C5.57296 42.9688 5.20837 42.078 5.20837 41.0256V8.97452C5.20837 7.92209 5.57296 7.03129 6.30212 6.30212C7.03129 5.57296 7.92209 5.20837 8.97452 5.20837H41.0256C42.078 5.20837 42.9688 5.57296 43.698 6.30212C44.4271 7.03129 44.7917 7.92209 44.7917 8.97452V41.0256C44.7917 42.078 44.4271 42.9688 43.698 43.698C42.9688 44.4271 42.078 44.7917 41.0256 44.7917H8.97452ZM8.33337 32.8125V41.0256C8.33337 41.2127 8.39344 41.3664 8.51358 41.4865C8.63372 41.6066 8.78737 41.6667 8.97452 41.6667H13.0209V37.0594H11.0579V32.8125H8.33337ZM8.33337 29.6875H11.0579V29.2469C11.0579 28.75 11.2275 28.332 11.5667 27.9927C11.9059 27.6535 12.3238 27.4839 12.8204 27.4839V22.3959C12.8204 21.6212 13.0941 20.9601 13.6417 20.4125C14.1893 19.8653 14.8504 19.5917 15.625 19.5917H19.7917C20.5664 19.5917 21.2275 19.8653 21.775 20.4125C22.3226 20.9601 22.5964 21.6212 22.5964 22.3959V27.4839C23.0929 27.4839 23.5108 27.6535 23.85 27.9927C24.1893 28.332 24.3589 28.75 24.3589 29.2469V29.6875H41.6667V8.97452C41.6667 8.78737 41.6066 8.63372 41.4865 8.51358C41.3664 8.39344 41.2127 8.33337 41.0256 8.33337H8.97452C8.78737 8.33337 8.63372 8.39344 8.51358 8.51358C8.39344 8.63372 8.33337 8.78737 8.33337 8.97452V29.6875ZM13.5417 34.5756H21.875V29.9677H13.5417V34.5756ZM17.7084 17.5084C16.9337 17.5084 16.2726 17.2346 15.725 16.687C15.1775 16.1395 14.9037 15.4783 14.9037 14.7037C14.9037 13.929 15.1775 13.2679 15.725 12.7204C16.2726 12.1728 16.9337 11.899 17.7084 11.899C18.483 11.899 19.1441 12.1728 19.6917 12.7204C20.2393 13.2679 20.5131 13.929 20.5131 14.7037C20.5131 15.4783 20.2393 16.1395 19.6917 16.687C19.1441 17.2346 18.483 17.5084 17.7084 17.5084ZM16.7068 41.6667H18.7099V37.0594H16.7068V41.6667ZM22.3959 41.6667H41.0256C41.2127 41.6667 41.3664 41.6066 41.4865 41.4865C41.6066 41.3664 41.6667 41.2127 41.6667 41.0256V32.8125H24.3589V37.0594H22.3959V41.6667ZM25.8813 20.5131C25.924 20.2353 25.954 19.9901 25.9714 19.7776C25.9888 19.5655 25.9974 19.3445 25.9974 19.1146C25.9974 18.6927 25.9094 18.2914 25.7334 17.9105C25.557 17.5299 25.2191 17.0311 24.7198 16.4141C24.2257 15.7811 23.8551 15.1514 23.6079 14.525C23.3606 13.899 23.237 13.2587 23.237 12.6042C23.237 12.3532 23.2478 12.1 23.2693 11.8448C23.2908 11.59 23.3363 11.2207 23.4058 10.737H25.8693C25.8134 11.0523 25.7747 11.3514 25.7532 11.6344C25.732 11.9177 25.7214 12.241 25.7214 12.6042C25.7214 13.0261 25.8094 13.4362 25.9855 13.8344C26.1618 14.2323 26.4476 14.653 26.8427 15.0964C27.441 15.82 27.8724 16.507 28.137 17.1573C28.4016 17.8077 28.5339 18.4601 28.5339 19.1146C28.5339 19.4164 28.5231 19.6688 28.5016 19.8719C28.4801 20.0747 28.4414 20.2884 28.3855 20.5131H25.8813ZM31.0896 20.5131C31.1323 20.2353 31.1624 19.9901 31.1797 19.7776C31.1971 19.5655 31.2058 19.3445 31.2058 19.1146C31.2058 18.6927 31.1178 18.2914 30.9417 17.9105C30.7653 17.5299 30.4275 17.0311 29.9282 16.4141C29.4341 15.7811 29.0634 15.1514 28.8162 14.525C28.569 13.899 28.4454 13.2587 28.4454 12.6042C28.4454 12.3532 28.4561 12.1 28.4776 11.8448C28.4992 11.59 28.5447 11.2207 28.6141 10.737H31.0776C31.0217 11.0523 30.983 11.3514 30.9615 11.6344C30.9403 11.9177 30.9297 12.241 30.9297 12.6042C30.9297 13.0261 31.0177 13.4362 31.1938 13.8344C31.3702 14.2323 31.6559 14.653 32.0511 15.0964C32.6493 15.82 33.0808 16.507 33.3454 17.1573C33.6099 17.8077 33.7422 18.4601 33.7422 19.1146C33.7422 19.4164 33.7315 19.6688 33.7099 19.8719C33.6884 20.0747 33.6497 20.2884 33.5938 20.5131H31.0896ZM36.4021 20.5131C36.4448 20.2217 36.4749 19.9733 36.4922 19.7677C36.5096 19.5622 36.5183 19.3445 36.5183 19.1146C36.5183 18.6927 36.4302 18.2914 36.2542 17.9105C36.0778 17.5299 35.74 17.0311 35.2407 16.4141C34.7466 15.7811 34.3759 15.1514 34.1287 14.525C33.8815 13.899 33.7579 13.2587 33.7579 12.6042C33.7579 12.3532 33.7686 12.1 33.7901 11.8448C33.8117 11.59 33.8572 11.2207 33.9266 10.737H36.3901C36.3342 11.0523 36.2955 11.3514 36.274 11.6344C36.2528 11.9177 36.2422 12.241 36.2422 12.6042C36.2422 13.0261 36.3302 13.4362 36.5063 13.8344C36.6827 14.2323 36.9684 14.653 37.3636 15.0964C37.9618 15.82 38.3933 16.507 38.6579 17.1573C38.9224 17.8077 39.0547 18.4601 39.0547 19.1146C39.0547 19.4164 39.044 19.6688 39.0224 19.8719C39.0009 20.0747 38.9622 20.2884 38.9063 20.5131H36.4021Z" />
</svg>
