<svg viewBox="0 0 60 60" >
<path d="M20.0944 43.6538C19.4673 43.6538 18.9423 43.4417 18.5194 43.0175C18.096 42.5933 17.8844 42.0677 17.8844 41.4406C17.8844 40.8135 18.0967 40.2885 18.5212 39.8656C18.9454 39.4423 19.471 39.2306 20.0981 39.2306C20.7252 39.2306 21.2502 39.4427 21.6731 39.8669C22.096 40.291 22.3075 40.8167 22.3075 41.4438C22.3075 42.0708 22.0954 42.596 21.6712 43.0194C21.2471 43.4423 20.7215 43.6538 20.0944 43.6538ZM29.9981 43.6538C29.371 43.6538 28.846 43.4417 28.4231 43.0175C28.0002 42.5933 27.7887 42.0677 27.7887 41.4406C27.7887 40.8135 28.0008 40.2885 28.425 39.8656C28.8492 39.4423 29.3748 39.2306 30.0019 39.2306C30.629 39.2306 31.154 39.4427 31.5769 39.8669C31.9998 40.291 32.2113 40.8167 32.2113 41.4438C32.2113 42.0708 31.9992 42.596 31.575 43.0194C31.1508 43.4423 30.6252 43.6538 29.9981 43.6538ZM39.9019 43.6538C39.2748 43.6538 38.7498 43.4417 38.3269 43.0175C37.904 42.5933 37.6925 42.0677 37.6925 41.4406C37.6925 40.8135 37.9046 40.2885 38.3288 39.8656C38.7529 39.4423 39.2785 39.2306 39.9056 39.2306C40.5327 39.2306 41.0577 39.4427 41.4806 39.8669C41.904 40.291 42.1156 40.8167 42.1156 41.4438C42.1156 42.0708 41.9033 42.596 41.4787 43.0194C41.0546 43.4423 40.529 43.6538 39.9019 43.6538ZM13.75 33.75V30C13.75 25.8238 15.1227 22.2108 17.8681 19.1613C20.6131 16.1117 24.0321 14.3592 28.125 13.9038V8.75H31.875V13.9038C35.9679 14.3592 39.3869 16.1117 42.1319 19.1613C44.8773 22.2108 46.25 25.8238 46.25 30V33.75H13.75ZM17.5 30H42.5C42.5 26.5417 41.2812 23.5938 38.8438 21.1563C36.4062 18.7188 33.4583 17.5 30 17.5C26.5417 17.5 23.5938 18.7188 21.1562 21.1563C18.7188 23.5938 17.5 26.5417 17.5 30ZM20.0944 51.0575C19.4673 51.0575 18.9423 50.8454 18.5194 50.4213C18.096 49.9971 17.8844 49.4715 17.8844 48.8444C17.8844 48.2173 18.0967 47.6923 18.5212 47.2694C18.9454 46.846 19.471 46.6344 20.0981 46.6344C20.7252 46.6344 21.2502 46.8465 21.6731 47.2706C22.096 47.6948 22.3075 48.2204 22.3075 48.8475C22.3075 49.4746 22.0954 49.9998 21.6712 50.4231C21.2471 50.846 20.7215 51.0575 20.0944 51.0575ZM29.9981 51.0575C29.371 51.0575 28.846 50.8454 28.4231 50.4213C28.0002 49.9971 27.7887 49.4715 27.7887 48.8444C27.7887 48.2173 28.0008 47.6923 28.425 47.2694C28.8492 46.846 29.3748 46.6344 30.0019 46.6344C30.629 46.6344 31.154 46.8465 31.5769 47.2706C31.9998 47.6948 32.2113 48.2204 32.2113 48.8475C32.2113 49.4746 31.9992 49.9998 31.575 50.4231C31.1508 50.846 30.6252 51.0575 29.9981 51.0575ZM39.9019 51.0575C39.2748 51.0575 38.7498 50.8454 38.3269 50.4213C37.904 49.9971 37.6925 49.4715 37.6925 48.8444C37.6925 48.2173 37.9046 47.6923 38.3288 47.2694C38.7529 46.846 39.2785 46.6344 39.9056 46.6344C40.5327 46.6344 41.0577 46.8465 41.4806 47.2706C41.904 47.6948 42.1156 48.2204 42.1156 48.8475C42.1156 49.4746 41.9033 49.9998 41.4787 50.4231C41.0546 50.846 40.529 51.0575 39.9019 51.0575Z" />
</svg>
