<svg viewBox="0 0 60 60">
<path d="M17.2113 46.25H15.2887L14 41.25H11.25V30.7306C11.25 29.484 11.6915 28.4256 12.5744 27.5556C13.4577 26.6852 14.5227 26.25 15.7694 26.25H16.25V19.5194C16.25 18.2727 16.6915 17.2079 17.5744 16.325C18.4577 15.4417 19.5227 15 20.7694 15H39.2306C40.4773 15 41.5423 15.4417 42.4256 16.325C43.3085 17.2079 43.75 18.2727 43.75 19.5194V26.25H44.2306C45.4773 26.25 46.5423 26.6915 47.4256 27.5744C48.3085 28.4577 48.75 29.5227 48.75 30.7694V41.25H46L44.7113 46.25H42.7887L41.5 41.25H18.5L17.2113 46.25ZM31.875 26.25H40V19.5194C40 19.2952 39.9279 19.1108 39.7837 18.9663C39.6396 18.8221 39.4552 18.75 39.2306 18.75H31.875V26.25ZM20 26.25H28.125V18.75H20.7694C20.5448 18.75 20.3604 18.8221 20.2162 18.9663C20.0721 19.1108 20 19.2952 20 19.5194V26.25ZM15 37.5H45V30.7694C45 30.5448 44.9279 30.3604 44.7837 30.2162C44.6396 30.0721 44.4552 30 44.2306 30H15.7694C15.5448 30 15.3604 30.0721 15.2163 30.2162C15.0721 30.3604 15 30.5448 15 30.7694V37.5Z" />
</svg>
