<svg viewBox="0 0 60 60">
<g clip-path="url(#clip0_81_220)">
<path fill-rule="evenodd" clip-rule="evenodd" d="M-0.574951 56.25C-0.574951 55.173 0.298094 54.3 1.37505 54.3H58C59.077 54.3 59.95 55.173 59.95 56.25C59.95 57.3269 59.077 58.2 58 58.2H1.37505C0.298094 58.2 -0.574951 57.3269 -0.574951 56.25Z"  />
<path fill-rule="evenodd" clip-rule="evenodd" d="M55.3867 4.35836L0 1.00006V5L0.000352957 5.00002L0.000355195 56.2142C0.000355239 57.2005 0.895786 58 2.00036 58C3.10493 58 4.00036 57.2005 4.00036 56.2142L4.00036 5.24302L55.054 8.3445C56.0368 8.42654 56.908 7.60073 56.9999 6.49999C57.0918 5.39926 56.3696 4.44041 55.3867 4.35836Z"  />
<path fill-rule="evenodd" clip-rule="evenodd" d="M13.8737 32.0773C13.6954 31.0152 12.6899 30.2987 11.6278 30.4769C10.5657 30.6552 9.84919 31.6607 10.0274 32.7228L12.4004 46.8616V56.2501C12.4004 57.327 13.2734 58.2001 14.3504 58.2001C14.5282 58.2001 14.7004 58.1763 14.864 58.1317C15.6919 57.9063 16.3006 57.1493 16.3006 56.25V48.6501H21.9504V56.2501C21.9504 57.327 22.8234 58.2001 23.9004 58.2001C24.9773 58.2001 25.8504 57.327 25.8504 56.2501V46.7001C25.8504 45.6231 24.9773 44.7501 23.9004 44.7501H16.0006L13.8737 32.0773Z"  />
<path fill-rule="evenodd" clip-rule="evenodd" d="M52.9767 32.0773C53.1549 31.0152 54.1604 30.2987 55.2225 30.4769C56.2847 30.6552 57.0011 31.6607 56.8229 32.7228L54.45 46.8616V56.2501C54.45 57.327 53.5769 58.2001 52.5 58.2001C52.3222 58.2001 52.15 58.1763 51.9863 58.1317C51.1585 57.9063 50.5498 57.1493 50.5498 56.25V48.6501H44.9V56.2501C44.9 57.327 44.0269 58.2001 42.95 58.2001C41.873 58.2001 41 57.327 41 56.2501V46.7001C41 45.6231 41.873 44.7501 42.95 44.7501H50.8498L52.9767 32.0773Z"  />
<path fill-rule="evenodd" clip-rule="evenodd" d="M23.95 37.6C22.873 37.6 22 38.4731 22 39.55C22 40.627 22.873 41.5 23.95 41.5H31.5249V56.25C31.5249 57.327 32.3979 58.2 33.4749 58.2C34.5519 58.2 35.4249 57.327 35.4249 56.25V41.5H43.025C44.102 41.5 44.975 40.627 44.975 39.55C44.975 38.4731 44.102 37.6 43.025 37.6H33.4749H23.95Z"  />
</g>
<defs>
<clipPath id="clip0_81_220">
<rect width="60" height="60" />
</clipPath>
</defs>
</svg>
