<svg viewBox="0 0 50 50" >
<path d="M7.29163 36.7546C7.29163 36.2525 7.43729 35.8506 7.72861 35.5489C8.01958 35.2471 8.36541 35.0963 8.76611 35.0963C8.97722 35.0963 9.18954 35.1296 9.40308 35.1963C9.61663 35.2629 9.81819 35.3631 10.0078 35.4968C10.3925 35.7079 10.7871 35.8876 11.1916 36.0359C11.5965 36.1841 12.0326 36.2583 12.5 36.2583C13.8729 36.2583 15.0441 35.7668 16.0135 34.7838C16.9833 33.8008 17.4682 32.6228 17.4682 31.2499C17.4682 29.877 16.9833 28.7124 16.0135 27.7562C15.0441 26.7999 13.8729 26.3218 12.5 26.3218C12.0725 26.3218 11.6559 26.3819 11.25 26.502C10.8441 26.6225 10.4701 26.8029 10.1281 27.0431C9.89302 27.1768 9.66003 27.2702 9.42913 27.3234C9.19822 27.3768 8.97722 27.4036 8.76611 27.4036C8.36541 27.4036 8.01958 27.2494 7.72861 26.9411C7.43729 26.6324 7.29163 26.2471 7.29163 25.7853V19.5515C7.29163 19.0279 7.46802 18.5898 7.82079 18.2374C8.17322 17.8846 8.61124 17.7083 9.13486 17.7083H17.588C17.7352 17.7083 17.8121 17.6548 17.8187 17.5478C17.8253 17.4412 17.7751 17.3345 17.6682 17.2275C17.3612 16.7067 17.1175 16.1525 16.9369 15.565C16.7567 14.9772 16.6666 14.3027 16.6666 13.5416C16.6666 11.218 17.4746 9.24818 19.0906 7.63221C20.7066 6.01624 22.6763 5.20825 25 5.20825C27.3236 5.20825 29.2934 6.01624 30.9093 7.63221C32.5253 9.24818 33.3333 11.218 33.3333 13.5416C33.3333 14.3027 33.2432 14.9772 33.063 15.565C32.8824 16.1525 32.6387 16.7067 32.3317 17.2275C32.2248 17.3345 32.1746 17.4412 32.1812 17.5478C32.1878 17.6548 32.2647 17.7083 32.4119 17.7083H40.8651C41.3887 17.7083 41.8267 17.8846 42.1791 18.2374C42.5319 18.5898 42.7083 19.0279 42.7083 19.5515V25.3442C42.7083 25.8678 42.5621 26.3527 42.2698 26.7989C41.977 27.2447 41.589 27.4676 41.1057 27.4676C40.8147 27.4676 40.5717 27.4303 40.3765 27.3556C40.1814 27.281 39.9864 27.1768 39.7916 27.0431C39.4899 26.8029 39.1527 26.6225 38.7802 26.502C38.4076 26.3819 37.9809 26.3218 37.5 26.3218C36.127 26.3218 34.9559 26.7999 33.9864 27.7562C33.0166 28.7124 32.5317 29.877 32.5317 31.2499C32.5317 32.6228 33.0166 33.8008 33.9864 34.7838C34.9559 35.7668 36.127 36.2583 37.5 36.2583C37.9809 36.2583 38.4243 36.1947 38.8302 36.0676C39.2361 35.9409 39.61 35.7506 39.952 35.4968C40.1257 35.3631 40.3019 35.2523 40.4807 35.1645C40.6595 35.0763 40.8678 35.0322 41.1057 35.0322C41.5491 35.0322 41.927 35.1918 42.2395 35.5109C42.552 35.83 42.7083 36.2445 42.7083 36.7546V42.9484C42.7083 43.472 42.5319 43.91 42.1791 44.2624C41.8267 44.6152 41.3887 44.7916 40.8651 44.7916H9.13486C8.61124 44.7916 8.17322 44.6152 7.82079 44.2624C7.46802 43.91 7.29163 43.472 7.29163 42.9484V36.7546ZM10.4166 41.6666H39.5833V39.0702C39.2493 39.1744 38.914 39.2525 38.5776 39.3046C38.2411 39.3567 37.8819 39.3827 37.5 39.3827C35.2618 39.3827 33.3534 38.5869 31.775 36.9952C30.1965 35.4032 29.4073 33.4881 29.4073 31.2499C29.4073 29.0117 30.1965 27.11 31.775 25.5447C33.3534 23.9798 35.2618 23.1973 37.5 23.1973C37.8819 23.1973 38.2411 23.2234 38.5776 23.2754C38.914 23.3275 39.2493 23.4056 39.5833 23.5098V20.8333H30.1041C29.5138 20.8333 29.0191 20.6456 28.6198 20.2702C28.2204 19.8949 28.0208 19.4228 28.0208 18.8541C28.0208 18.5631 28.0743 18.2666 28.1812 17.9645C28.2878 17.6628 28.456 17.4251 28.6859 17.2515C29.2762 16.8348 29.6774 16.2947 29.8895 15.6312C30.102 14.9673 30.2083 14.2708 30.2083 13.5416C30.2083 12.0833 29.7048 10.8506 28.6979 9.84367C27.6909 8.83672 26.4583 8.33325 25 8.33325C23.5416 8.33325 22.309 8.83672 21.302 9.84367C20.2951 10.8506 19.7916 12.0833 19.7916 13.5416C19.7916 14.2708 19.8979 14.9673 20.1104 15.6312C20.3225 16.2947 20.7237 16.8348 21.314 17.2515C21.5303 17.3984 21.6953 17.6154 21.8088 17.9025C21.9224 18.1897 21.9791 18.4721 21.9791 18.7499C21.9791 19.3402 21.7795 19.835 21.3802 20.2343C20.9809 20.6336 20.4861 20.8333 19.8958 20.8333H10.4166V23.5098C10.7507 23.4056 11.0859 23.3275 11.4224 23.2754C11.7588 23.2234 12.118 23.1973 12.5 23.1973C14.7382 23.1973 16.6465 23.9798 18.225 25.5447C19.8034 27.11 20.5927 29.0117 20.5927 31.2499C20.5927 33.4881 19.8034 35.4032 18.225 36.9952C16.6465 38.5869 14.7382 39.3827 12.5 39.3827C12.118 39.3827 11.7588 39.3567 11.4224 39.3046C11.0859 39.2525 10.7507 39.1744 10.4166 39.0702V41.6666Z"  />
</svg>
