<svg  viewBox="0 0 50 50"  >
<path d="M12.8808 37.6999C11.3784 37.6999 10.1013 37.1742 9.04956 36.1228C7.99782 35.0711 7.47196 33.794 7.47196 32.2916H3.3855V14.5833C3.3855 13.7239 3.69157 12.9883 4.30373 12.3765C4.91553 11.7643 5.65112 11.4583 6.5105 11.4583H34.7157L46.6147 23.0369V32.2916H42.8485C42.8485 33.794 42.3227 35.0711 41.2709 36.1228C40.2192 37.1742 38.9423 37.6999 37.4402 37.6999C35.9378 37.6999 34.6607 37.1742 33.6089 36.1228C32.5572 35.0711 32.0313 33.794 32.0313 32.2916H18.2891C18.2891 33.7871 17.7634 35.0624 16.7121 36.1176C15.6603 37.1725 14.3832 37.6999 12.8808 37.6999ZM30.4688 21.4343H40.3246L33.2334 14.5833H30.4688V21.4343ZM18.4897 21.4343H27.3438V14.5833H18.4897V21.4343ZM6.5105 21.4343H15.3647V14.5833H6.5105V21.4343ZM12.8808 34.8958C13.61 34.8958 14.2263 34.644 14.7298 34.1405C15.2332 33.6371 15.485 33.0208 15.485 32.2916C15.485 31.5624 15.2332 30.9461 14.7298 30.4426C14.2263 29.9392 13.61 29.6874 12.8808 29.6874C12.1516 29.6874 11.5353 29.9392 11.0319 30.4426C10.5284 30.9461 10.2766 31.5624 10.2766 32.2916C10.2766 33.0208 10.5284 33.6371 11.0319 34.1405C11.5353 34.644 12.1516 34.8958 12.8808 34.8958ZM37.4402 34.8958C38.1694 34.8958 38.7857 34.644 39.2891 34.1405C39.7926 33.6371 40.0444 33.0208 40.0444 32.2916C40.0444 31.5624 39.7926 30.9461 39.2891 30.4426C38.7857 29.9392 38.1694 29.6874 37.4402 29.6874C36.711 29.6874 36.0947 29.9392 35.5912 30.4426C35.0878 30.9461 34.836 31.5624 34.836 32.2916C34.836 33.0208 35.0878 33.6371 35.5912 34.1405C36.0947 34.644 36.711 34.8958 37.4402 34.8958ZM6.5105 29.1666H8.57769C9.02109 28.5416 9.61484 28.0048 10.3589 27.5562C11.1027 27.1072 11.9433 26.8827 12.8808 26.8827C13.8183 26.8827 14.6489 27.0971 15.3725 27.526C16.0964 27.9548 16.7001 28.5017 17.1834 29.1666H33.1371C33.5805 28.5416 34.174 28.0048 34.9178 27.5562C35.6619 27.1072 36.5027 26.8827 37.4402 26.8827C38.3777 26.8827 39.2082 27.0971 39.9319 27.526C40.6558 27.9548 41.2595 28.5017 41.7428 29.1666H43.4897V24.5593H6.5105V29.1666Z"  />
</svg>
