<svg  viewBox="0 0 16 19"  >
<path d="M7.54975 9.36037C8.04725 9.36037 8.47258 9.1832 8.82575 8.82887C9.17908 8.47453 9.35575 8.04862 9.35575 7.55112C9.35575 7.05362 9.17858 6.6282 8.82425 6.27487C8.46992 5.9217 8.04392 5.74512 7.54625 5.74512C7.04875 5.74512 6.62342 5.92228 6.27025 6.27662C5.91692 6.63095 5.74025 7.05695 5.74025 7.55462C5.74025 8.05212 5.91742 8.47745 6.27175 8.83062C6.62608 9.18378 7.05208 9.36037 7.54975 9.36037ZM7.548 17.0086C9.50433 15.2573 11.0014 13.5775 12.0393 11.9691C13.0771 10.3608 13.596 8.95212 13.596 7.74312C13.596 5.92012 13.0168 4.42145 11.8585 3.24712C10.7002 2.07278 9.26333 1.48562 7.548 1.48562C5.83267 1.48562 4.39583 2.07278 3.2375 3.24712C2.07917 4.42145 1.5 5.92012 1.5 7.74312C1.5 8.95212 2.01892 10.3608 3.05675 11.9691C4.09458 13.5775 5.59167 15.2573 7.548 17.0086ZM7.548 19.0046C5.03133 16.824 3.14417 14.7945 1.8865 12.9164C0.628833 11.038 0 9.31362 0 7.74312C0 5.43545 0.746417 3.5672 2.23925 2.13837C3.73225 0.709533 5.50183 -0.00488281 7.548 -0.00488281C9.59417 -0.00488281 11.3637 0.709533 12.8567 2.13837C14.3496 3.5672 15.096 5.43545 15.096 7.74312C15.096 9.31362 14.4672 11.038 13.2095 12.9164C11.9518 14.7945 10.0647 16.824 7.548 19.0046Z"  />
</svg>
