<svg  viewBox="0 0 50 50" >
<path d="M4.6875 40.8734V37.8526C5.64097 37.7991 6.46024 37.6161 7.14531 37.3036C7.83038 36.9911 8.52083 36.6626 9.21667 36.3182C9.9125 35.9734 10.6797 35.6635 11.5182 35.3885C12.3571 35.1135 13.3788 34.976 14.5833 34.976C15.8226 34.976 16.8609 35.1236 17.6984 35.4187C18.5356 35.7139 19.3288 36.0437 20.0781 36.4083C20.8274 36.7729 21.58 37.1114 22.3359 37.4239C23.0918 37.7364 23.9799 37.8927 25 37.8927C26.0201 37.8927 26.9082 37.7364 27.6641 37.4239C28.42 37.1114 29.1726 36.7729 29.9219 36.4083C30.6712 36.0437 31.4731 35.7139 32.3276 35.4187C33.1825 35.1236 34.2122 34.976 35.4167 34.976C36.6559 34.976 37.6863 35.1135 38.5078 35.3885C39.329 35.6635 40.0875 35.9734 40.7833 36.3182C41.4792 36.6626 42.1748 36.9911 42.8703 37.3036C43.5661 37.6161 44.3802 37.7991 45.3125 37.8526V40.8734C44.1667 40.8331 43.1911 40.6567 42.3859 40.3442C41.5807 40.0317 40.8234 39.7033 40.1141 39.3588C39.405 39.0144 38.6965 38.7012 37.9885 38.4192C37.2809 38.1376 36.4236 37.9968 35.4167 37.9968C34.4444 37.9968 33.5858 38.1444 32.8406 38.4396C32.0955 38.7347 31.3536 39.0646 30.6151 39.4291C29.8766 39.7937 29.0712 40.1323 28.199 40.4448C27.3271 40.7573 26.2608 40.9135 25 40.9135C23.7392 40.9135 22.6729 40.7573 21.801 40.4448C20.9288 40.1323 20.1234 39.7937 19.3849 39.4291C18.6464 39.0646 17.9132 38.7347 17.1854 38.4396C16.4576 38.1444 15.5903 37.9968 14.5833 37.9968C13.6111 37.9968 12.7625 38.1376 12.0375 38.4192C11.3122 38.7012 10.595 39.0144 9.88594 39.3588C9.17656 39.7033 8.41927 40.0317 7.61406 40.3442C6.80885 40.6567 5.83333 40.8331 4.6875 40.8734ZM4.6875 32.2437V29.2229C5.64097 29.1694 6.46024 28.9864 7.14531 28.6739C7.83038 28.3614 8.52083 28.033 9.21667 27.6885C9.9125 27.3437 10.6797 27.0338 11.5182 26.7588C12.3571 26.4838 13.3788 26.3463 14.5833 26.3463C15.8226 26.3463 16.8609 26.4939 17.6984 26.789C18.5356 27.0842 19.3288 27.414 20.0781 27.7786C20.8274 28.1432 21.58 28.4817 22.3359 28.7942C23.0918 29.1067 23.9799 29.263 25 29.263C26.0201 29.263 26.9082 29.1067 27.6641 28.7942C28.42 28.4817 29.1726 28.1432 29.9219 27.7786C30.6712 27.414 31.4731 27.0842 32.3276 26.789C33.1825 26.4939 34.2122 26.3463 35.4167 26.3463C36.6559 26.3463 37.6863 26.4838 38.5078 26.7588C39.329 27.0338 40.0875 27.3437 40.7833 27.6885C41.4792 28.033 42.1748 28.3614 42.8703 28.6739C43.5661 28.9864 44.3802 29.1694 45.3125 29.2229V32.2437C44.1667 32.2034 43.1911 32.0271 42.3859 31.7146C41.5807 31.4021 40.8234 31.0736 40.1141 30.7291C39.405 30.3847 38.6965 30.0715 37.9885 29.7896C37.2809 29.5076 36.4236 29.3666 35.4167 29.3666C34.4229 29.3666 33.5535 29.5142 32.8083 29.8093C32.0632 30.1045 31.3214 30.4343 30.5828 30.7989C29.8443 31.1635 29.0444 31.5021 28.1833 31.8146C27.3219 32.1271 26.2608 32.2833 25 32.2833C23.7392 32.2833 22.6729 32.1271 21.801 31.8146C20.9288 31.5021 20.1234 31.1635 19.3849 30.7989C18.6464 30.4343 17.9132 30.1045 17.1854 29.8093C16.4576 29.5142 15.5903 29.3666 14.5833 29.3666C13.6111 29.3666 12.7625 29.5076 12.0375 29.7896C11.3122 30.0715 10.595 30.3847 9.88594 30.7291C9.17656 31.0736 8.41927 31.4021 7.61406 31.7146C6.80885 32.0271 5.83333 32.2034 4.6875 32.2437ZM4.6875 23.6135V20.5932C5.64097 20.5397 6.46024 20.3567 7.14531 20.0442C7.83038 19.7317 8.52083 19.4031 9.21667 19.0583C9.9125 18.7139 10.6797 18.4041 11.5182 18.1291C12.3571 17.8541 13.3788 17.7166 14.5833 17.7166C15.8226 17.7166 16.8609 17.8642 17.6984 18.1593C18.5356 18.4545 19.3288 18.7843 20.0781 19.1489C20.8274 19.5135 21.58 19.852 22.3359 20.1645C23.0918 20.477 23.9799 20.6333 25 20.6333C26.0201 20.6333 26.9082 20.477 27.6641 20.1645C28.42 19.852 29.1726 19.5135 29.9219 19.1489C30.6712 18.7843 31.4731 18.4545 32.3276 18.1593C33.1825 17.8642 34.2122 17.7166 35.4167 17.7166C36.6559 17.7166 37.6863 17.8541 38.5078 18.1291C39.329 18.4041 40.0875 18.7139 40.7833 19.0583C41.4792 19.4031 42.1748 19.7317 42.8703 20.0442C43.5661 20.3567 44.3802 20.5397 45.3125 20.5932V23.6135C44.1667 23.5736 43.1911 23.3974 42.3859 23.0849C41.5807 22.7724 40.8234 22.4439 40.1141 22.0994C39.405 21.7547 38.6965 21.4415 37.9885 21.1599C37.2809 20.8779 36.4236 20.7369 35.4167 20.7369C34.4444 20.7369 33.5858 20.8845 32.8406 21.1797C32.0955 21.4748 31.3536 21.8047 30.6151 22.1692C29.8766 22.5338 29.0712 22.8724 28.199 23.1849C27.3271 23.4974 26.2608 23.6536 25 23.6536C23.7392 23.6536 22.6729 23.4974 21.801 23.1849C20.9288 22.8724 20.1234 22.5338 19.3849 22.1692C18.6464 21.8047 17.9132 21.4748 17.1854 21.1797C16.4576 20.8845 15.5903 20.7369 14.5833 20.7369C13.6111 20.7369 12.7625 20.8779 12.0375 21.1599C11.3122 21.4415 10.595 21.7547 9.88594 22.0994C9.17656 22.4439 8.41927 22.7724 7.61406 23.0849C6.80885 23.3974 5.83333 23.5736 4.6875 23.6135ZM4.6875 14.9838V11.963C5.64097 11.9099 6.46024 11.727 7.14531 11.4145C7.83038 11.102 8.52083 10.7734 9.21667 10.4286C9.9125 10.0842 10.6797 9.77445 11.5182 9.49945C12.3571 9.2241 13.3788 9.08643 14.5833 9.08643C15.8226 9.08643 16.8609 9.234 17.6984 9.52913C18.5356 9.82427 19.3288 10.1541 20.0781 10.5187C20.8274 10.8833 21.58 11.2218 22.3359 11.5343C23.0918 11.8468 23.9799 12.0031 25 12.0031C26.0201 12.0031 26.9082 11.8468 27.6641 11.5343C28.42 11.2218 29.1726 10.8833 29.9219 10.5187C30.6712 10.1541 31.4731 9.82427 32.3276 9.52913C33.1825 9.234 34.2122 9.08643 35.4167 9.08643C36.6559 9.08643 37.6863 9.2241 38.5078 9.49945C39.329 9.77445 40.0875 10.0842 40.7833 10.4286C41.4792 10.7734 42.1748 11.102 42.8703 11.4145C43.5661 11.727 44.3802 11.9099 45.3125 11.963V14.9838C44.1667 14.9439 43.1911 14.7677 42.3859 14.4552C41.5807 14.1427 40.8234 13.8142 40.1141 13.4698C39.405 13.125 38.6965 12.8118 37.9885 12.5302C37.2809 12.2482 36.4236 12.1073 35.4167 12.1073C34.4444 12.1073 33.5858 12.2548 32.8406 12.55C32.0955 12.8451 31.3536 13.175 30.6151 13.5396C29.8766 13.9041 29.0712 14.2427 28.199 14.5552C27.3271 14.8677 26.2608 15.0239 25 15.0239C23.7392 15.0239 22.6729 14.8677 21.801 14.5552C20.9288 14.2427 20.1234 13.9041 19.3849 13.5396C18.6464 13.175 17.9132 12.8451 17.1854 12.55C16.4576 12.2548 15.5903 12.1073 14.5833 12.1073C13.6111 12.1073 12.7625 12.2482 12.0375 12.5302C11.3122 12.8118 10.595 13.125 9.88594 13.4698C9.17656 13.8142 8.41927 14.1427 7.61406 14.4552C6.80885 14.7677 5.83333 14.9439 4.6875 14.9838Z"  />
</svg>
