<svg  viewBox="0 0 50 50" >
<path d="M25 43.1489C23.8222 43.1489 22.8265 42.7423 22.013 41.9291C21.1998 41.1159 20.7932 40.1203 20.7932 38.9422C20.7932 37.7644 21.1998 36.7689 22.013 35.9557C22.8265 35.1425 23.8222 34.7359 25 34.7359C26.1777 34.7359 27.1734 35.1425 27.9869 35.9557C28.8001 36.7689 29.2067 37.7644 29.2067 38.9422C29.2067 40.1203 28.8001 41.1159 27.9869 41.9291C27.1734 42.7423 26.1777 43.1489 25 43.1489ZM13.2291 31.9791L9.97599 28.662C11.9045 26.7335 14.1498 25.2137 16.7119 24.1026C19.2744 22.9915 22.0381 22.4359 25.0031 22.4359C27.9684 22.4359 30.731 22.9968 33.2911 24.1187C35.8512 25.2406 38.0954 26.7764 40.0239 28.726L36.7708 31.9791C35.243 30.4514 33.4722 29.2534 31.4583 28.3854C29.4444 27.5173 27.2916 27.0833 25 27.0833C22.7083 27.0833 20.5555 27.5173 18.5416 28.3854C16.5277 29.2534 14.7569 30.4514 13.2291 31.9791ZM4.37495 23.125L1.12183 19.8718C4.1694 16.7816 7.72842 14.3531 11.7989 12.5864C15.8694 10.8194 20.2697 9.93591 25 9.93591C29.7302 9.93591 34.1305 10.8194 38.201 12.5864C42.2715 14.3531 45.8305 16.7816 48.8781 19.8718L45.625 23.125C42.9513 20.4514 39.8524 18.3593 36.3281 16.8489C32.8038 15.3385 29.0277 14.5833 25 14.5833C20.9722 14.5833 17.1961 15.3385 13.6718 16.8489C10.1475 18.3593 7.04856 20.4514 4.37495 23.125Z"  />
</svg>
