<svg viewBox="0 0 209 75">
<path fill-rule="evenodd" clip-rule="evenodd" d="M0 55L8.5 50.5L16.5 46L23.5 40L25 38.5H27L36 43.5H37.5L44.5 38.5L49 34L50.5 32.5L59.5 40L72.5 29L73.5 26.5L87 12.5L92.5 6L95.5 9L98 6L102 3L105.5 1L112 0L117.5 1L121.5 3L124 6.5L125.5 11V15.5L125 20L122.5 24.5L120 27.5L119 29L125.5 26H130.5L142 18.5L160.5 36.5L164.5 35.5L167.5 33L170 31.5L173 33L183.5 41L194 49.5L201 55L206 58.5L208.5 62L207.5 63L205 61L199 59L192.5 57L186.5 52.5L181.5 46L177.5 42L173.5 39L171 38.5L170 39.5L171.5 42.5L173.5 47.5H171.5L169.5 45.5L166 42.5L167.5 46L172 51.5L177 56L180.5 61L182.5 65.5V67L179 65.5L175 63L172 58.5L169.5 54L168 53L167.5 55L166 57.5L164.5 56L163.5 53L163 49L162 45.5L160 41L156.5 37.5L152.5 33L149.5 30L146.5 29L145 26.5L141.5 24L138 26.5L136.5 30L135 31.5L131.5 35.5L129.5 38.5L128 39.5V44.5L125 43L126 48.5L127 54L126 57L124 55L122.5 51.5L120 49L120.5 46V42L118 38L113 35.5L107.5 29L103 23L100.5 20H99.5L98 22.5L97 20L94 17L92.5 16.5L91.5 20.5L91 25.5L89 29L86.5 28.5L86 31L85 33L84 35.5H83L82.5 31L81.5 34V36.5L79.5 39V42L77.5 45.5L76 46.5L73.5 43.5L71.5 42V45.5L73.5 49L76.5 51.5H79.5L83 49.5L86 47.5L88 49L91 50L94 51.5L98 52.5V54H71.5L68 53L65 51.5L61 50.5L58 50L57 46.5L55 43L53 42.5L51 43.5L49 43L47.5 42L46 44.5L40 50L38 51L34.5 55L33 58.5L31 60L22 61L16 62.5H14L18.5 58.5L24.5 54.5L31 49.5L31.5 47.5L28.5 46L25.5 44.5L23 47L19.5 50L16.5 50.5L12 52.5L7 54L0 55ZM97.5 10.5L98.5 9L101 8H106L111 9L113 10L112 11.5L106.5 11L104 11.5V12.5V13.5H106.5H111V15H108V16.5L109.5 17.5H112L113 18.5L114 20H117.5V21L114 22.5H111L97.5 10.5Z" />
<path d="M33.5 29L30 28L30.5 26.5L34 26L37.5 27L40 26L43.5 25L47 26V28H45L42 29L38.5 30.5L37 32L36 30.5L33.5 29Z" />
<path d="M51.5 20H48L50 19H54.5L57 18L60 17.5L63 18L64.5 20H62H59.5L57 21L56 22.5H54.5L53.5 21.5L51.5 20Z" />
<path d="M159.5 19C158.5 19.5 156.4 20.6 156 21L158.5 21.5L160 22L162 23L163 21.5L165 21H168.5L167.5 19.5L165 19C164.5 19.1667 163.4 19.5 163 19.5C162.6 19.5 161.833 19.8333 161.5 20L159.5 19Z" />
<path d="M2.5 62.5L6.5 59L10 62.2743L8.5 63.5L10.5 65.5L7.5 66.5L10 70H0L3 66.5L1.5 65.5L4 63L2.5 62.5Z" />
<path d="M42.5 59L48 53L53.5 59H51L54.5 63.5H52L55.5 69.5H39.5L44.5 64H40.5L45.5 59H42.5Z" />
<path d="M61.5 65L66.5 58.5L71.5 64L69 64.5L73 69.5H70L75 75L59.5 74.5L64.5 69.5H59.5L64.5 65.5L61.5 65Z" />
<path d="M102.5 48.5L107.5 42.5L113 50L111 49.5L115 54.5H112L115.5 59.5L113.5 60.5H102.5L99 60L102.5 54.5L100.5 54L105 49.5L102.5 48.5Z" />
<path d="M130.5 61L136 54L141.5 62L139 62.5L142 67H139L143 73H126.5L131.5 67.5L128.5 67L133 61.5L130.5 61Z" />
<path d="M145 50.5L149 46L154 51L151.5 51.5L154.5 56L151.5 55.5L153 58.5H144L145.5 56H143L148 50.5H145Z" />
<path d="M156 62L160.5 57.5L165 63L162.5 64L165.5 66.5L163 67L165 70H155L157.5 66.5H155L159 62H156Z" />
</svg>
