<svg width="200" height="74" viewBox="0 0 200 74" xmlns="http://www.w3.org/2000/svg">
<path fill-rule="evenodd" d="M122.115 14.9038C122.115 20.9952 118.461 26.2331 113.225 28.5447C114.321 29.4526 114.952 29.9336 114.904 29.7922C117.304 27.8393 119.712 25.9461 121.154 25.4653C121.154 25.4653 123.341 25.6767 125 26.4268C129.131 22.9392 135.096 18.719 136.058 18.7345C137.019 18.75 148.563 28.8299 154.808 36.523L163.462 31.7153C177.424 40.3169 185.522 47.3158 200 60.0807C199.109 59.8261 198.454 59.639 197.803 59.4389C195.995 58.8833 194.217 58.2282 187.5 55.7538C181.06 53.3811 177.726 49.8135 173.119 44.8826C171.191 42.8196 169.041 40.5179 166.346 37.9653C165.665 38.726 165.049 38.9445 163.462 38.9268C163.462 38.9268 167.788 46.6191 167.308 47.0998C166.827 47.5806 159.135 41.8114 159.135 41.8114C168.754 53.1848 173.38 59.0131 175.962 65.3691C171.333 64.5483 168.002 61.4582 161.058 52.3884C160.641 55.0458 160.281 56.2407 159.135 57.1961C155.769 43.2537 152.898 37.3003 143.269 29.3114H140.385L136.058 23.5422C128.71 30.3127 125.761 34.774 123.077 44.2153L119.712 41.8114C121.543 48.4438 121.981 51.2569 122.115 55.273L114.904 47.0999C116.827 44.696 116.346 38.9268 112.019 37.0037C107.769 35.1145 103.054 28.5856 96.9637 20.1518L96.6346 19.6961L95.1923 22.5807L89.4231 15.8498C89.3738 16.1453 89.3258 16.4349 89.2787 16.7191L89.2677 16.7854C88.4016 22.0123 87.8393 25.406 85.5769 29.7922L83.1731 27.8691C82.5051 31.0808 81.8576 32.7469 80.2885 35.5614L78.8462 31.7153C77.1595 37.7806 76.1577 41.0892 73.5577 45.6576L68.75 40.8499L69.7115 48.5422C74.8445 51.8926 77.5675 51.3733 82.2115 46.6191C86.229 49.295 88.8566 50.4692 93.75 52.3884H70.6731C64.4845 51.4813 61.5894 50.6083 57.2115 48.5422C54.655 44.3828 53.3231 42.5002 51.4423 41.3306L51.4232 41.3495C50.5656 42.1982 50.0791 42.6797 48.5577 43.2537C47.6206 43.1043 47.0949 42.7632 46.1538 41.8114L39.4231 49.9845H36.5385C34.9669 53.0382 33.7947 54.8373 31.25 58.1576L13.9423 61.523L30.2885 46.6191C28.0702 45.301 26.8109 44.5627 24.5192 43.2537C22.8325 46.5805 19.7115 48.5421 17.3077 49.5037C14.9038 50.4652 5.33413 53.3491 0 53.8307C0 53.8307 6.25 50.9461 13.9423 45.6576C21.6346 40.3691 24.5192 37.4845 24.5192 37.4845L35.0962 43.2537L48.5577 32.1961C49.7453 33.1197 50.7513 33.9286 51.7027 34.6935C53.4586 36.1053 55.0289 37.3678 57.2115 38.9268C63.8744 35.9655 78.5173 18.7635 85.1217 11.0048C87.0952 8.68639 88.3509 7.21118 88.4615 7.21107C88.582 7.21095 90.3219 8.68487 92.8572 10.88C94.613 4.60357 100.375 0 107.212 0C115.443 0 122.115 6.67268 122.115 14.9038ZM93.75 12.0192C97.0578 9.48994 100.804 8.96728 109.135 10.0962C109.399 11.4156 106.29 11.5247 103.534 11.6215C101.268 11.701 99.2409 11.7721 99.5192 12.5C100.3 14.5411 103.346 14.4159 105.23 14.3385C106.009 14.3065 106.59 14.2826 106.731 14.4231C106.941 14.6332 106.141 15.0268 105.294 15.4437C104.203 15.9807 103.034 16.5562 103.846 16.827C104.652 17.3179 105.779 17.407 106.691 17.4793C107.391 17.5346 107.965 17.58 108.173 17.7885C108.413 18.0289 108.293 18.2692 108.173 18.5096C108.053 18.75 107.933 18.9905 108.173 19.2308C108.413 19.4712 109.736 19.4713 111.058 19.4713C112.38 19.4713 113.702 19.4713 113.942 19.7116C114.423 20.1923 106.731 22.5962 106.731 22.5962L93.75 12.0192Z"/>
<path d="M36.0577 26.9231C32.8732 25.1127 31.0664 25.1601 27.8846 27.4039C32.4899 27.8721 34.2793 28.8247 36.0577 31.7308C39.2735 28.2603 41.5138 27.3859 46.1538 27.4039C43.0076 24.9267 40.8157 24.758 36.0577 26.9231Z" />
<path d="M46.1538 20.1924C47.1154 18.7501 49.5334 17.7802 53.3654 19.2974C57.8047 17.3058 59.0463 17.4241 62.5 19.7116C57.891 19.7668 56.5743 20.1754 53.3654 23.6244C50.2899 20.4636 49.4143 20.3994 46.1538 20.1924Z" />
<path d="M155.769 20.1928C152.674 19.0584 151.24 20.1835 150.216 20.9865C150.142 21.0447 150.07 21.1012 150 21.155C153.337 20.8882 154.782 21.8349 156.25 24.0012C157.673 21.1358 158.641 20.6498 162.019 20.6731C160.096 19.2307 157.692 18.7501 155.769 20.1928Z"/>
<path d="M157.466 61.133L153.814 54.8077L150.162 61.133H151.66L149.6 64.7011H151.099L149.038 68.2692H158.59L156.53 64.7011H158.028L155.968 61.133H157.466Z"/>
<path d="M143.237 44.2308L146.889 50.5561H145.391L147.451 54.1242H145.953L148.013 57.6923H138.462L140.522 54.1242H139.023L141.083 50.5561H139.585L143.237 44.2308Z"/>
<path d="M135.568 61.2981L130.155 51.9231L124.742 61.2981H126.963L123.91 66.5865H126.13L123.077 71.875H137.233L134.18 66.5865H136.4L133.347 61.2981H135.568Z"/>
<path d="M103.365 39.4231L108.778 48.7981H106.557L109.611 54.0865H107.39L110.443 59.375H96.2873L99.3406 54.0865H97.12L100.173 48.7981H97.9527L103.365 39.4231Z"/>
<path d="M68.7217 64.0474L63.9423 55.7692L59.1629 64.0474H61.1237L58.4275 68.7174H60.3883L57.6923 73.387H70.1923L67.4963 68.7174H69.457L66.7608 64.0474H68.7217Z"/>
<path d="M46.6346 50L51.414 58.2782H49.4531L52.1493 62.9481H50.1886L52.8846 67.6178H40.3846L43.0806 62.9481H41.1199L43.816 58.2782H41.8552L46.6346 50Z"/>
<path d="M9.44574 62.1371L5.76927 55.7692L2.0928 62.1371H3.60114L1.52715 65.7293H3.03542L0.961538 69.3214H10.5769L8.50304 65.7293H10.0113L7.93732 62.1371H9.44574Z"/>
</svg>
