<svg width="800" height="800" viewBox="0 0 800 800" fill="none" xmlns="http://www.w3.org/2000/svg">
<path d="M399.999 0C179.436 0 0.00634766 179.43 0.00634766 399.993C0.00634766 452.325 10.3734 502.191 28.7387 548.023L38.6385 533.291L194.269 269.295C200.136 259.328 210.701 253.128 222.268 252.863C234.668 253.463 244.635 258.363 250.9 268.03L287.067 323.629L371.265 180.764C377.433 170.331 389.265 163.897 400.865 164.397C412.965 164.697 423.997 171.564 429.564 182.33L546.895 407.958L598.862 319.86C604.694 309.893 615.294 303.693 626.828 303.427C638.461 303.527 649.228 308.96 655.528 318.627L774.493 501.624L783.093 514.491C793.96 478.192 799.992 439.792 799.992 399.993C799.992 179.43 620.563 0 399.999 0Z" fill="#899254"/>
<path d="M398.17 266.431L161.441 667.824L138.607 702.091C192.239 748.557 258.205 780.857 330.971 793.589C335.671 781.722 339.504 771.622 341.303 765.857C341.271 759.924 342.803 753.99 345.936 748.757L506.966 475.629L398.17 266.431Z" fill="#899254"/>
<path d="M224.39 349.474L95.025 568.837L63.5928 615.569C72.0598 628.701 81.0253 641.501 90.8923 653.535L105.025 632.403L249.255 387.74L224.39 349.474Z" fill="#899254"/>
<path d="M628.939 400.073L407.643 775.333C406.31 781.6 403.843 789.5 399.976 800H400.009C552.306 800 684.936 714.369 752.47 588.771L718.803 538.272L628.939 400.073Z" fill="#899254"/>
</svg>
