<svg width="155" height="50" viewBox="0 0 155 50" fill="none" xmlns="http://www.w3.org/2000/svg">
<g clip-path="url(#clip0_35_434)">
<path d="M147.333 18.4157H154.419C153.523 11.5191 148.486 7.89404 141.485 7.89404C134.399 7.89404 129.661 11.6518 129.661 18.1063C129.661 25.4449 135.765 27.0805 139.009 27.7438C143.193 28.5837 147.29 28.6722 147.29 32.3856C147.29 34.9055 145.241 36.1433 142.339 36.1433C138.753 36.1433 136.363 34.2866 135.765 30.9269H128.765C129.192 38.177 134.271 42.0674 141.741 42.0674C148.656 42.0674 154.333 38.796 154.333 31.7226C154.333 24.1186 147.803 22.7482 143.235 22.0408C140.119 21.5546 136.704 21.1124 136.704 17.7083C136.704 15.3211 138.454 13.8623 141.4 13.8623C144.815 13.8623 146.863 15.8518 147.333 18.4157Z" fill="#403F41"/>
<path d="M124.88 8.99951H118.179V41.0506H124.88V8.99951Z" fill="#403F41"/>
<path d="M97.9459 29.8659H106.697C105.33 33.3144 102.257 34.9498 98.7141 34.9498C92.4822 34.9498 89.5797 29.9543 89.5797 25.0029C89.5797 20.0073 92.3114 14.9234 98.6716 14.9234C102.556 14.9234 105.458 16.7801 106.568 20.0958L113.782 20.0958C112.544 12.6247 106.227 8.33643 98.757 8.33643C89.537 8.33643 82.6218 14.8349 82.6218 25.0914C82.6218 35.4804 90.1344 41.6254 98.7141 41.6254C107.166 41.6254 113.782 35.9225 113.782 26.9924V24.384H97.9459V29.8659Z" fill="#403F41"/>
<path d="M67.2977 8.33643C59.6143 8.33643 53.9371 13.3319 53.9799 21.6431H60.895C60.8095 18.018 63.0291 14.7024 66.9562 14.7024C70.3711 14.7024 72.3773 17.1781 72.3773 20.0073C72.3773 22.8367 70.3711 24.4283 66.6574 26.1525C61.5778 28.4955 57.9497 29.9986 54.2359 31.3249V41.0507H80.1034V34.5078H62.3451C62.3451 34.5078 62.4042 34.4886 62.4333 34.4796C65.4538 33.5317 67.723 32.5019 70.4138 31.2806C76.1763 28.6282 79.4631 25.3124 79.4631 19.6538C79.4631 12.7129 74.5116 8.33643 67.2977 8.33643Z" fill="#403F41"/>
<path d="M35.7959 29.7775C27.088 29.8217 25.6794 35.2593 25.2099 39.857L24.9965 41.8905H23.2463L23.0329 39.857C22.5634 35.2593 21.1122 29.8217 12.703 29.7775C11.2944 26.7711 10.6968 24.3397 10.6968 21.5988C10.6968 14.7466 16.1179 8.33612 24.1427 8.33612C32.1675 8.33612 37.5032 14.7021 37.5032 21.6432C37.5033 24.3397 37.2472 26.7711 35.7959 29.7775ZM24.0574 0.0249023C10.825 0.0249023 -0.0172119 11.254 -0.0172119 25.0026C-0.0172119 38.7959 10.825 50.0248 24.0574 50.0248C37.4178 50.0248 48.2174 38.7959 48.2174 25.0026C48.2174 11.254 37.4178 0.0249023 24.0574 0.0249023Z" fill="#29B24A"/>
</g>
<defs>
<clipPath id="clip0_35_434">
<rect width="154.436" height="50" fill="white"/>
</clipPath>
</defs>
</svg>
