<svg width="124" height="40" viewBox="0 0 124 40" fill="none" xmlns="http://www.w3.org/2000/svg">
<g clip-path="url(#clip0_235_2)">
<path d="M117.866 14.7328H123.535C122.818 9.21548 118.789 6.31543 113.188 6.31543C107.519 6.31543 103.729 9.32164 103.729 14.4852C103.729 20.3561 108.612 21.6646 111.207 22.1953C114.554 22.8672 117.832 22.938 117.832 25.9086C117.832 27.9246 116.193 28.9149 113.871 28.9149C111.003 28.9149 109.09 27.4295 108.612 24.7417H103.012C103.353 30.5418 107.417 33.6541 113.393 33.6541C118.925 33.6541 123.467 31.037 123.467 25.3783C123.467 19.2951 118.242 18.1988 114.588 17.6328C112.095 17.2439 109.363 16.8901 109.363 14.1669C109.363 12.2571 110.764 11.09 113.12 11.09C115.852 11.09 117.491 12.6816 117.866 14.7328Z" fill="#403F41"/>
<path d="M99.9044 7.19971H94.543V32.8406H99.9044V7.19971Z" fill="#403F41"/>
<path d="M78.3567 23.8925H85.3572C84.2644 26.6513 81.8056 27.9596 78.9713 27.9596C73.9858 27.9596 71.6637 23.9633 71.6637 20.0021C71.6637 16.0056 73.8491 11.9385 78.9373 11.9385C82.0448 11.9385 84.3667 13.4239 85.2547 16.0764L91.0257 16.0764C90.0355 10.0995 84.9815 6.66895 79.0056 6.66895C71.6296 6.66895 66.0975 11.8677 66.0975 20.0729C66.0975 28.3841 72.1075 33.3001 78.9713 33.3001C85.7328 33.3001 91.0257 28.7378 91.0257 21.5937V19.507H78.3567V23.8925Z" fill="#403F41"/>
<path d="M53.8382 6.66895C47.6915 6.66895 43.1498 10.6653 43.1839 17.3143H48.716C48.6477 14.4142 50.4233 11.7617 53.565 11.7617C56.297 11.7617 57.9019 13.7423 57.9019 16.0057C57.9019 18.2692 56.2969 19.5424 53.326 20.9218C49.2623 22.7962 46.3598 23.9987 43.3888 25.0597V32.8404H64.0828V27.606H49.8761C49.8761 27.606 49.9234 27.5907 49.9467 27.5834C52.3631 26.8251 54.1784 26.0013 56.3311 25.0243C60.9411 22.9024 63.5705 20.2497 63.5705 15.7228C63.5705 10.1701 59.6094 6.66895 53.8382 6.66895Z" fill="#403F41"/>
<path d="M28.6367 23.8221C21.6704 23.8575 20.5435 28.2075 20.168 31.8857L19.9973 33.5125H18.5971L18.4263 31.8857C18.0508 28.2075 16.8897 23.8574 10.1624 23.8221C9.03557 21.417 8.55749 19.4718 8.55749 17.2791C8.55749 11.7973 12.8944 6.66899 19.3141 6.66899C25.7341 6.66899 30.0026 11.7618 30.0026 17.3146C30.0026 19.4718 29.7978 21.417 28.6367 23.8221ZM19.246 0.0200195C8.66003 0.0200195 -0.0137482 9.00329 -0.0137482 20.0022C-0.0137482 31.0368 8.66003 40.0199 19.246 40.0199C29.9343 40.0199 38.5739 31.0368 38.5739 20.0022C38.5739 9.00331 29.9343 0.0200195 19.246 0.0200195Z" fill="#29B24A"/>
</g>
<defs>
<clipPath id="clip0_235_2">
<rect width="123.549" height="40" fill="white"/>
</clipPath>
</defs>
</svg>
