<svg width="60" height="60" viewBox="0 0 60 60" fill="none" xmlns="http://www.w3.org/2000/svg">
<path d="M58.64 14.4599C57.965 16.5824 57.0549 18.4298 55.9149 20.1074L55.9625 20.0324C54.8424 21.899 53.5049 24.0557 51.95 26.5024C50.6166 28.434 49.9108 29.4341 49.8324 29.5024C49.4874 29.9348 49.2474 30.4649 49.1649 31.0474L49.1624 31.0649C49.2299 31.5949 49.475 32.0573 49.8324 32.4023L50.8325 33.5174C56.1824 39.0157 59.1916 42.8057 59.8599 44.8874C59.9474 45.1174 59.9975 45.3824 59.9975 45.6599C59.9975 46.1449 59.8424 46.5923 59.5799 46.9598L59.585 46.9523C59.1449 47.4049 58.5299 47.6849 57.8499 47.6849C57.7749 47.6849 57.6974 47.6824 57.6249 47.6749H57.635H51.0575C51.0549 47.6749 51.05 47.6749 51.0449 47.6749C50.2025 47.6749 49.4274 47.3798 48.8199 46.8899L48.8274 46.8949C47.9424 46.1674 47.1549 45.3799 46.4499 44.5249L46.4274 44.4949C45.2758 43.1932 44.2541 42.0974 43.3625 41.2073C40.3925 38.384 38.2007 36.9724 36.7874 36.9724C36.7349 36.9674 36.6749 36.9649 36.6125 36.9649C36.2 36.9649 35.8149 37.0924 35.4974 37.3099L35.5049 37.3049C35.2449 37.6298 35.0874 38.0498 35.0874 38.5024C35.0874 38.5924 35.0924 38.6774 35.105 38.7649V38.7548C35.0375 39.5399 34.9974 40.4524 34.9974 41.3749C34.9974 41.6723 35.0024 41.9674 35.0099 42.2624V42.2198V45.1174C35.0349 45.2348 35.0499 45.3698 35.0499 45.5074C35.0499 46.1123 34.775 46.6523 34.3449 47.0099L34.3424 47.0123C33.3749 47.4548 32.2449 47.7149 31.0524 47.7149C30.7974 47.7149 30.5474 47.7023 30.2999 47.6798L30.3324 47.6824C26.3975 47.6074 22.7474 46.4549 19.6449 44.5124L19.7324 44.5624C15.9549 42.2674 12.8249 39.2798 10.4399 35.7499L10.3724 35.6449C8.10745 32.6399 5.99495 29.2448 4.19495 25.6649L4.01995 25.2799C2.96744 23.2748 1.87745 20.8099 0.937448 18.2749L0.787448 17.8124C0.404947 16.6724 0.127447 15.3473 0.0124463 13.9748L0.00744629 13.9124C0.00744629 12.6491 0.75078 12.0173 2.23745 12.0173H8.81245C8.87245 12.0124 8.94242 12.0098 9.01495 12.0098C9.63497 12.0098 10.2074 12.2224 10.6599 12.5798L10.655 12.5749C11.1549 13.1224 11.525 13.7948 11.7074 14.5448L11.7149 14.5748C12.9249 17.9924 14.2074 20.8624 15.6824 23.6123L15.515 23.2699C16.7199 25.6949 18.0524 27.7823 19.5725 29.7098L19.5149 29.6324C20.8483 31.269 21.8882 32.0873 22.6349 32.0873C22.6574 32.0899 22.685 32.0899 22.715 32.0899C23.0849 32.0899 23.4074 31.8899 23.5824 31.5899L23.585 31.5848C23.7699 31.1099 23.8775 30.5573 23.8775 29.9824C23.8775 29.8598 23.8724 29.7374 23.8625 29.6174V29.6324V19.9349C23.81 18.7924 23.5299 17.7248 23.0624 16.7674L23.0825 16.8149C22.7724 16.1549 22.4 15.5849 21.9575 15.0773L21.965 15.0874C21.5549 14.6774 21.275 14.1398 21.1874 13.5398L21.185 13.5248C21.185 13.0999 21.38 12.7174 21.6849 12.4673L21.6875 12.4649C21.9899 12.1874 22.3949 12.0199 22.8374 12.0199H22.8575H33.2225C33.2774 12.0124 33.3399 12.0098 33.4049 12.0098C33.8924 12.0098 34.3299 12.2299 34.6199 12.5749L34.6224 12.5774C34.88 13.0474 35.0324 13.6099 35.0324 14.2049C35.0324 14.2999 35.0274 14.3924 35.0199 14.4848V14.4724V27.4049C35.015 27.4649 35.0124 27.5348 35.0124 27.6049C35.0124 28.0649 35.1399 28.4974 35.36 28.8649L35.3549 28.8548C35.5374 29.1248 35.8424 29.2999 36.1874 29.2999C36.6275 29.2699 37.0299 29.1248 37.3674 28.8949L37.3599 28.8998C38.0399 28.4324 38.6249 27.8999 39.1325 27.2974L39.1424 27.2849C40.6599 25.5698 42.0599 23.6749 43.28 21.6599L43.3775 21.4849C44.2374 20.0599 45.1674 18.3049 46.01 16.5023L46.1649 16.1348L47.2799 13.9049C47.6675 12.7898 48.7074 12.0049 49.9299 12.0049C49.9775 12.0049 50.0249 12.0049 50.0724 12.0074H50.0649H56.6424C58.4191 12.0074 59.0858 12.8249 58.6424 14.4599H58.64Z" fill="black"/>
</svg>
