<svg width="50" height="50" viewBox="0 0 50 50" fill="none" xmlns="http://www.w3.org/2000/svg">
<path d="M48.8667 12.0502C48.3042 13.819 47.5458 15.3585 46.5958 16.7565L46.6354 16.694C45.7021 18.2495 44.5875 20.0467 43.2917 22.0856C42.1806 23.6953 41.5924 24.5287 41.5271 24.5856C41.2396 24.946 41.0396 25.3877 40.9708 25.8731L40.9688 25.8877C41.025 26.3294 41.2292 26.7148 41.5271 27.0023L42.3604 27.9315C46.8188 32.5134 49.3264 35.6717 49.8833 37.4065C49.9563 37.5981 49.9979 37.819 49.9979 38.0502C49.9979 38.4544 49.8688 38.8273 49.65 39.1335L49.6542 39.1273C49.2875 39.5044 48.775 39.7377 48.2083 39.7377C48.1458 39.7377 48.0813 39.7356 48.0208 39.7294H48.0292H42.5479C42.5458 39.7294 42.5417 39.7294 42.5375 39.7294C41.8354 39.7294 41.1896 39.4835 40.6833 39.0752L40.6896 39.0794C39.9521 38.4731 39.2958 37.8169 38.7083 37.1044L38.6896 37.0794C37.7299 35.9946 36.8784 35.0815 36.1354 34.3398C33.6604 31.987 31.834 30.8106 30.6563 30.8106C30.6125 30.8065 30.5625 30.8044 30.5104 30.8044C30.1667 30.8044 29.8458 30.9106 29.5813 31.0919L29.5875 31.0877C29.3708 31.3585 29.2396 31.7085 29.2396 32.0856C29.2396 32.1606 29.2438 32.2315 29.2542 32.3044V32.296C29.1979 32.9502 29.1646 33.7106 29.1646 34.4794C29.1646 34.7273 29.1688 34.9731 29.175 35.219V35.1835V37.5981C29.1958 37.696 29.2083 37.8085 29.2083 37.9231C29.2083 38.4273 28.9792 38.8773 28.6208 39.1752L28.6188 39.1773C27.8125 39.546 26.8708 39.7627 25.8771 39.7627C25.6646 39.7627 25.4563 39.7523 25.25 39.7335L25.2771 39.7356C21.9979 39.6731 18.9563 38.7127 16.3708 37.094L16.4438 37.1356C13.2958 35.2231 10.6875 32.7335 8.70001 29.7919L8.64376 29.7044C6.75626 27.2002 4.99584 24.371 3.49584 21.3877L3.35001 21.0669C2.47292 19.396 1.56459 17.3419 0.781258 15.2294L0.656258 14.844C0.337506 13.894 0.106256 12.7898 0.0104228 11.646L0.0062561 11.594C0.0062561 10.5412 0.625701 10.0148 1.86459 10.0148H7.34376C7.39376 10.0106 7.45207 10.0085 7.51251 10.0085C8.02919 10.0085 8.50626 10.1856 8.88332 10.4835L8.8792 10.4794C9.29582 10.9356 9.6042 11.496 9.75626 12.121L9.76251 12.146C10.7708 14.994 11.8396 17.3856 13.0688 19.6773L12.9292 19.3919C13.9333 21.4127 15.0438 23.1523 16.3104 24.7585L16.2625 24.694C17.3736 26.0578 18.2403 26.7398 18.8625 26.7398C18.8813 26.7419 18.9042 26.7419 18.9292 26.7419C19.2375 26.7419 19.5063 26.5752 19.6521 26.3252L19.6542 26.321C19.8083 25.9252 19.8979 25.4648 19.8979 24.9856C19.8979 24.8835 19.8938 24.7815 19.8854 24.6815V24.694V16.6127C19.8417 15.6606 19.6083 14.771 19.2188 13.9731L19.2354 14.0127C18.9771 13.4627 18.6667 12.9877 18.2979 12.5648L18.3042 12.5731C17.9625 12.2315 17.7292 11.7835 17.6563 11.2835L17.6542 11.271C17.6542 10.9169 17.8167 10.5981 18.0708 10.3898L18.0729 10.3877C18.325 10.1565 18.6625 10.0169 19.0313 10.0169H19.0479H27.6854C27.7313 10.0106 27.7833 10.0085 27.8375 10.0085C28.2438 10.0085 28.6083 10.1919 28.85 10.4794L28.8521 10.4815C29.0667 10.8731 29.1938 11.3419 29.1938 11.8377C29.1938 11.9169 29.1896 11.994 29.1833 12.071V12.0606V22.8377C29.1792 22.8877 29.1771 22.946 29.1771 23.0044C29.1771 23.3877 29.2833 23.7481 29.4667 24.0544L29.4625 24.046C29.6146 24.271 29.8688 24.4169 30.1563 24.4169C30.5229 24.3919 30.8583 24.271 31.1396 24.0794L31.1333 24.0835C31.7 23.694 32.1875 23.2502 32.6104 22.7481L32.6188 22.7377C33.8833 21.3085 35.05 19.7294 36.0667 18.0502L36.1479 17.9044C36.8646 16.7169 37.6396 15.2544 38.3417 13.7523L38.4708 13.446L39.4 11.5877C39.7229 10.6585 40.5896 10.0044 41.6083 10.0044C41.6479 10.0044 41.6875 10.0044 41.7271 10.0065H41.7208H47.2021C48.6826 10.0065 49.2382 10.6877 48.8688 12.0502H48.8667Z" fill="black"/>
</svg>
