<svg width="40" height="40" viewBox="0 0 40 40" fill="none" xmlns="http://www.w3.org/2000/svg">
<g clip-path="url(#clip0_235_28)">
<mask id="mask0_235_28" style="mask-type:luminance" maskUnits="userSpaceOnUse" x="0" y="0" width="40" height="40">
<path d="M40 0H0V40H40V0Z" fill="white"/>
</mask>
<g mask="url(#mask0_235_28)">
<path fill-rule="evenodd" clip-rule="evenodd" d="M34.1667 5.83335C30.4167 2.08334 25.3334 0 20 0C9.01665 0 0 9.01665 0 20C0 23.5167 1.08333 26.85 2.83333 29.8667L0 40L10.55 37.4167C13.4667 39.0167 16.6667 40 20 40C30.9834 40 40 30.9834 40 20C40 14.6834 37.9334 9.6 34.1667 5.83335ZM20 36.6667C17.0334 36.6667 14.2 35.6834 11.65 34.1834L11.05 33.8167L4.78334 35.4667L6.45 29.35L6.05 28.7167C4.4 26.0834 3.33334 23.1334 3.33334 20C3.33334 10.8666 10.8666 3.33334 20 3.33334C24.4167 3.33334 28.6667 5.08335 31.8 8.21665C34.9334 11.35 36.6667 15.5834 36.6667 20C36.6667 29.1334 29.1167 36.6667 20 36.6667ZM29.1667 24.0833C28.6667 23.8333 26.2167 22.6334 25.7667 22.4667C25.3167 22.3 24.9834 22.2167 24.65 22.7167C24.3167 23.2167 23.3667 24.3334 23.0667 24.6667C22.7834 25 22.4833 25.0333 21.9833 24.7833C21.4833 24.5333 19.8833 24.0167 17.9833 22.3167C16.5 21 15.5 19.3667 15.2167 18.8667C14.9334 18.3667 15.1833 18.1 15.4333 17.85C15.65 17.6334 15.9333 17.2666 16.1833 16.9833C16.4333 16.7 16.5166 16.4834 16.6833 16.15C16.85 15.8167 16.7667 15.5333 16.65 15.2833C16.5167 15.0333 15.5167 12.5834 15.1 11.5834C14.7 10.6167 14.2833 10.75 13.9833 10.7334C13.7 10.7167 13.3666 10.7166 13.0333 10.7166C12.7 10.7166 12.1667 10.85 11.7 11.3334C11.25 11.8334 9.96665 13.05 9.96665 15.5C9.96665 17.95 11.75 20.3167 12 20.65C12.25 20.9834 15.5167 26.0167 20.5 28.1667C21.6834 28.6834 22.6166 28.9834 23.3333 29.2167C24.5333 29.6 25.6167 29.55 26.4667 29.4167C27.4167 29.2667 29.4167 28.2167 29.8334 27.05C30.25 25.8834 30.25 24.8833 30.1167 24.6833C30 24.4666 29.6667 24.3333 29.1667 24.0833Z" fill="black"/>
</g>
</g>
<defs>
<clipPath id="clip0_235_28">
<rect width="40" height="40" fill="white"/>
</clipPath>
</defs>
</svg>
