<svg width="50" height="50" viewBox="0 0 50 50" fill="none" xmlns="http://www.w3.org/2000/svg">
<g clip-path="url(#clip0_35_371)">
<mask id="mask0_35_371" style="mask-type:luminance" maskUnits="userSpaceOnUse" x="0" y="0" width="50" height="50">
<path d="M50 0H0V50H50V0Z" fill="white"/>
</mask>
<g mask="url(#mask0_35_371)">
<path fill-rule="evenodd" clip-rule="evenodd" d="M42.7083 7.29169C38.0208 2.60417 31.6667 0 25 0C11.2708 0 0 11.2708 0 25C0 29.3958 1.35417 33.5625 3.54167 37.3333L0 50L13.1875 46.7708C16.8333 48.7708 20.8333 50 25 50C38.7292 50 50 38.7292 50 25C50 18.3542 47.4167 12 42.7083 7.29169ZM25 45.8333C21.2917 45.8333 17.75 44.6042 14.5625 42.7292L13.8125 42.2708L5.97917 44.3333L8.0625 36.6875L7.5625 35.8958C5.5 32.6042 4.16667 28.9167 4.16667 25C4.16667 13.5833 13.5833 4.16667 25 4.16667C30.5208 4.16667 35.8333 6.35419 39.75 10.2708C43.6667 14.1875 45.8333 19.4792 45.8333 25C45.8333 36.4167 36.3958 45.8333 25 45.8333ZM36.4583 30.1042C35.8333 29.7917 32.7708 28.2917 32.2083 28.0833C31.6458 27.875 31.2292 27.7708 30.8125 28.3958C30.3958 29.0208 29.2083 30.4167 28.8333 30.8333C28.4792 31.25 28.1042 31.2917 27.4792 30.9792C26.8542 30.6667 24.8542 30.0208 22.4792 27.8958C20.625 26.25 19.375 24.2083 19.0208 23.5833C18.6667 22.9583 18.9792 22.625 19.2917 22.3125C19.5625 22.0417 19.9167 21.5833 20.2292 21.2292C20.5417 20.875 20.6458 20.6042 20.8542 20.1875C21.0625 19.7708 20.9583 19.4167 20.8125 19.1042C20.6458 18.7917 19.3958 15.7292 18.875 14.4792C18.375 13.2708 17.8542 13.4375 17.4792 13.4167C17.125 13.3958 16.7083 13.3958 16.2917 13.3958C15.875 13.3958 15.2083 13.5625 14.625 14.1667C14.0625 14.7917 12.4583 16.3125 12.4583 19.375C12.4583 22.4375 14.6875 25.3958 15 25.8125C15.3125 26.2292 19.3958 32.5208 25.625 35.2083C27.1042 35.8542 28.2708 36.2292 29.1667 36.5208C30.6667 37 32.0208 36.9375 33.0833 36.7708C34.2708 36.5833 36.7708 35.2708 37.2917 33.8125C37.8125 32.3542 37.8125 31.1042 37.6458 30.8542C37.5 30.5833 37.0833 30.4167 36.4583 30.1042Z" fill="black"/>
</g>
</g>
<defs>
<clipPath id="clip0_35_371">
<rect width="50" height="50" fill="white"/>
</clipPath>
</defs>
</svg>
